<svg width="29" height="29" viewBox="0 0 29 29" fill="none" xmlns="http://www.w3.org/2000/svg">
<path d="M29 14.5011C29.0012 12.3407 28.5186 10.2074 27.5878 8.25784C26.6569 6.30827 25.3013 4.59187 23.6205 3.23458L23.577 3.19108L23.519 3.14758C21.3841 1.44872 18.8124 0.388027 16.1005 0.0878541C13.3887 -0.212319 10.6473 0.260263 8.19251 1.45108L8.09101 1.49458C6.10089 2.48069 4.36306 3.90951 3.01082 5.67144C1.65858 7.43338 0.727844 9.48163 0.290012 11.6591H0.275512C0.0939968 12.5956 0.00175019 13.5472 1.18252e-05 14.5011C-0.00287916 16.7593 0.524352 18.9866 1.53928 21.0039C2.55421 23.0211 4.0285 24.772 5.84351 26.1156L5.94501 26.2026H5.97401C7.87061 27.5894 10.0769 28.4925 12.4016 28.8336C14.7262 29.1747 17.0989 28.9435 19.314 28.1601L19.401 28.1311C22.2077 27.1209 24.6349 25.2705 26.3525 22.8316C28.0701 20.3928 28.9945 17.484 29 14.5011ZM19.981 26.6666C20.2827 25.1286 20.4332 23.5648 20.4305 21.9976C20.4282 19.9779 20.175 17.9663 19.6765 16.0091C21.7624 15.3949 23.9255 15.0824 26.1 15.0811C26.68 15.0811 27.26 15.0956 27.8255 15.1391C27.702 17.5954 26.9047 19.9704 25.521 22.0037C24.1373 24.037 22.2206 25.6502 19.981 26.6666V26.6666ZM27.8255 13.9791C27.26 13.9356 26.68 13.9211 26.1 13.9211C23.8177 13.9226 21.5474 14.2498 19.3575 14.8926C18.8179 13.1897 18.0934 11.5511 17.197 10.0061L16.9795 9.65808C19.3558 8.29631 21.4837 6.54104 23.2725 4.46708C24.6413 5.65715 25.7515 7.11525 26.5347 8.75129C27.3178 10.3873 27.7571 12.1666 27.8255 13.9791V13.9791ZM22.3735 3.72758C20.6701 5.71274 18.6338 7.38593 16.356 8.67208C14.5748 6.05203 12.2932 3.8099 9.64251 2.07458C11.1898 1.46717 12.8378 1.15725 14.5 1.16108C17.3302 1.16067 20.0873 2.0594 22.3735 3.72758V3.72758ZM8.38101 2.65458C11.1382 4.32356 13.5064 6.5632 15.3265 9.22308C12.1893 10.7932 8.72821 11.6075 5.22001 11.6011C3.99084 11.6018 2.76375 11.4999 1.55151 11.2966C2.01155 9.454 2.85847 7.73044 4.03599 6.24042C5.21351 4.75039 6.69466 3.52804 8.38101 2.65458V2.65458ZM1.16001 14.5011C1.16153 13.8117 1.21484 13.1234 1.31951 12.4421C2.60852 12.6569 3.91323 12.7636 5.22001 12.7611C8.9517 12.7616 12.6316 11.8875 15.9645 10.2091L16.1965 10.6006C17.0556 12.0697 17.7463 13.6311 18.2555 15.2551C16.8654 15.7328 15.5251 16.3447 14.2535 17.0821C10.9522 18.9856 8.15338 21.6502 6.09001 24.8541C4.55021 23.6035 3.30869 22.0253 2.45585 20.2343C1.60301 18.4434 1.16032 16.4847 1.16001 14.5011V14.5011ZM7.03251 25.5501C8.99582 22.4709 11.6715 19.9096 14.8335 18.0826C16.0232 17.4043 17.2702 16.8318 18.56 16.3716C19.0368 18.2087 19.2756 20.0995 19.2705 21.9976C19.2695 23.74 19.07 25.4767 18.676 27.1741C16.7401 27.8107 14.6841 27.9954 12.6657 27.7139C10.6474 27.4324 8.72032 26.6921 7.03251 25.5501V25.5501Z" fill="#B2215A"/>
</svg>
