<svg width="1866" height="621" viewBox="0 0 1866 621" fill="none" xmlns="http://www.w3.org/2000/svg">
<path d="M692.614 477.904H592.75V446.093H624.562V247.976H592.75V216.164H692.614V247.976H661.205V446.093H692.614V477.904ZM938.672 477.904H845.251V450.522H874.243V372.806C874.243 354.551 870.754 341.665 863.774 334.149C856.794 326.363 847.533 322.471 835.989 322.471C820.956 322.471 809.01 327.437 800.151 337.37C791.292 347.303 786.594 358.846 786.057 372V450.522H815.05V477.904H721.629V450.522H750.622V325.692H720.421V297.908H786.057V328.511C798.674 305.693 819.077 294.283 847.264 294.283C864.713 294.283 879.478 299.652 891.559 310.391C903.639 321.129 909.679 337.907 909.679 360.725V450.522H938.672V477.904ZM1102.6 450.12V325.692H1017.64V450.12H1055.49V477.904H953.209V450.12H982.604V325.692H957.638V297.908H982.604V268.512C982.604 247.036 990.121 229.721 1005.15 216.567C1020.19 203.413 1039.65 196.836 1063.54 196.836C1087.43 196.836 1108.37 202.607 1126.36 214.151L1133.61 258.043L1105.42 261.667L1097.77 232.674C1094.82 231.063 1090.25 229.452 1084.08 227.842C1077.9 225.963 1070.52 225.023 1061.93 225.023C1032.4 225.023 1017.64 239.251 1017.64 267.707V297.908H1138.04V450.12H1167.03V477.904H1073.61V450.12H1102.6ZM1414.07 298.31L1381.86 301.129L1373.81 247.976H1314.21V446.093H1359.31V477.904H1233.67V446.093H1277.57V247.976H1217.57L1209.51 301.129L1177.7 298.31L1185.35 216.164H1406.02L1414.07 298.31ZM1446.82 311.599C1457.83 305.156 1468.57 300.726 1479.04 298.31C1489.77 295.626 1501.45 294.283 1514.07 294.283C1534.47 294.283 1550.58 299.25 1562.39 309.183C1574.47 319.115 1580.51 334.417 1580.51 355.088V438.442C1580.51 450.254 1585.21 456.16 1594.6 456.16C1598.36 456.16 1601.99 455.489 1605.48 454.146L1605.88 475.086C1598.36 479.649 1589.64 481.931 1579.71 481.931C1557.96 481.931 1546.42 469.851 1545.08 445.69V445.287C1539.71 454.683 1531.92 463.139 1521.72 470.656C1511.79 478.173 1499.57 481.931 1485.08 481.931C1472.73 481.931 1460.38 478.173 1448.03 470.656C1435.95 463.139 1429.91 449.985 1429.91 431.194C1429.91 408.644 1438.77 393.879 1456.49 386.899C1474.47 379.651 1493.67 376.027 1514.07 376.027C1526.42 376.027 1536.75 376.564 1545.08 377.638V364.349C1545.08 352.537 1542.79 342.471 1538.23 334.149C1533.67 325.827 1523.47 321.666 1507.63 321.666C1494.74 321.666 1483.87 323.947 1475.01 328.511L1468.16 357.906L1439.57 354.685L1446.82 311.599ZM1545.08 408.644V398.174C1540.24 397.637 1535.14 397.235 1529.77 396.966C1524.67 396.429 1519.44 396.161 1514.07 396.161C1501.72 396.161 1490.71 398.174 1481.05 402.201C1471.39 406.228 1466.55 414.55 1466.55 427.167C1466.55 436.831 1469.51 443.811 1475.41 448.106C1481.59 452.401 1488.57 454.549 1496.35 454.549C1507.89 454.549 1518.63 450.522 1528.57 442.469C1538.5 434.415 1544 423.14 1545.08 408.644ZM1816.17 477.904H1733.62V450.522H1754.16L1716.71 405.422L1679.26 450.522H1697.78V477.904H1620.07V450.522H1644.63L1699.4 388.51L1643.02 325.692H1620.87V297.908H1705.44V325.692H1684.5L1720.33 369.584L1757.38 325.692H1738.86V297.908H1812.55V325.692H1792.41L1738.05 385.691L1795.23 450.522H1816.17V477.904Z" fill="#E9702D"/>
<path d="M102.649 55.9463C94.2159 70.5445 88.7439 86.6622 86.5459 103.377C84.3479 120.092 85.4669 137.077 89.839 153.359C94.211 169.641 101.75 184.901 112.026 198.267C122.301 211.633 135.111 222.841 149.722 231.252L304.833 320.646C349.621 346.518 365.235 313.217 387.573 276.08L437.304 190.058C441.306 183.136 443.904 175.494 444.949 167.567C445.995 159.64 445.467 151.585 443.396 143.863C441.325 136.14 437.751 128.902 432.88 122.562C428.008 116.222 421.934 110.905 415.005 106.915L255.596 14.9739C229.875 0.147214 199.322 -3.86568 170.645 3.81642C141.969 11.4985 117.513 30.2476 102.649 55.9463V55.9463Z" fill="#E9702D"/>
<path d="M166.842 157.106L117.111 243.128C90.7057 290.614 88.9239 317.502 120 337.002L340.084 463.866C369.58 480.87 404.619 485.472 437.505 476.661C470.391 467.85 498.436 446.346 515.48 416.873C522.832 404.159 527.604 390.12 529.523 375.559C531.442 360.998 530.469 346.201 526.662 332.017C522.854 317.832 516.286 304.538 507.333 292.895C498.38 281.253 487.218 271.491 474.487 264.168L250.156 134.888C243.227 130.875 235.575 128.265 227.638 127.21C219.7 126.154 211.633 126.673 203.896 128.736C196.159 130.799 188.904 134.367 182.546 139.235C176.189 144.102 170.852 150.175 166.842 157.106V157.106Z" fill="#555555"/>
<path d="M53.7033 140.554L18.7509 200.955C9.56133 216.846 3.59627 234.393 1.19723 252.592C-1.2018 270.791 0.0122947 289.285 4.77002 307.014C9.52775 324.744 17.7357 341.36 28.9238 355.913C40.112 370.466 54.0608 382.669 69.9714 391.824L269.528 506.869C283.667 515.028 300.466 517.242 316.236 513.026C332.006 508.809 345.457 498.506 353.637 484.38L392.768 416.72C397.362 408.775 400.344 400.002 401.544 390.904C402.743 381.805 402.136 372.559 399.757 363.695C397.378 354.831 393.274 346.524 387.68 339.248C382.086 331.973 375.112 325.872 367.157 321.295L139.192 189.862C127.96 183.406 118.112 174.798 110.213 164.53C102.313 154.261 96.5182 142.535 93.159 130.024C89.7998 117.512 88.9427 104.46 90.6367 91.6161C92.3308 78.7724 96.5428 66.3892 103.031 55.1762L53.7033 140.554Z" fill="#F9F9F9"/>
<path d="M127.087 375.476L89.4472 440.79C81.3775 454.766 79.189 471.375 83.363 486.965C87.537 502.555 97.7316 515.848 111.705 523.923L247.287 602.284C263.161 611.456 280.687 617.41 298.863 619.805C317.04 622.199 335.51 620.987 353.218 616.239C370.926 611.49 387.524 603.298 402.064 592.13C416.604 580.962 428.8 567.038 437.954 551.154L466.635 501.433L501.436 441.142L516.537 414.968C501.33 437.503 478.136 453.424 451.641 459.514C425.146 465.605 397.328 461.409 373.808 447.776L338.704 427.482L210.109 353.178C196.145 345.131 179.557 342.96 163.992 347.141C148.427 351.323 135.16 361.515 127.108 375.476H127.087Z" fill="#E9702D"/>
</svg>
