<svg width="100" height="30" viewBox="0 0 293 148" fill="none" xmlns="http://www.w3.org/2000/svg">
<g filter="url(#filter0_d)">
<path d="M90.8561 28.1449C90.8561 13.7055 79.6315 2 65.7852 2C51.9389 2 40.7142 13.7055 40.7142 28.1449V56.6666C40.7142 71.106 51.9389 82.8115 65.7852 82.8115C79.6315 82.8115 90.8561 71.106 90.8561 56.6666V28.1449Z" stroke="black" stroke-width="2.52536"/>
</g>
<g filter="url(#filter1_d)">
<path d="M16.138 43.4412C16.5044 39.8124 19.4389 37.0582 22.938 37.0582H108.285C111.689 37.0582 114.575 39.6692 115.054 43.1833L127.352 133.205C127.938 137.499 124.742 141.341 120.582 141.341H13.8378C9.77799 141.341 6.61278 137.673 7.03842 133.463L16.138 43.4412Z" fill="black"/>
<path d="M35.9929 113.413L40.888 64.9855H90.9815L97.5962 113.413H35.9929Z" stroke="white" stroke-width="59.3459"/>
</g>
<path d="M49.8307 88.8256V88.7804C50.2238 83.5158 52.0597 79.5673 55.2506 77.0711C58.3975 74.5297 61.8066 73.3038 65.5217 73.3038C69.4117 73.2587 73.0395 74.62 76.2743 77.3432C79.5523 80.0207 81.1694 84.0149 81.1694 89.1886V89.5065C81.1694 94.7254 79.5523 98.6287 76.2743 101.306C72.9962 104.029 69.3684 105.391 65.4784 105.391H65.3035C61.5006 105.346 58.0038 103.984 54.7697 101.261C51.5355 98.583 49.8746 94.4533 49.8307 88.8256ZM64.5604 81.6999V74.5297H63.5115C63.2927 74.8018 63.1177 75.1191 62.9434 75.3919C62.7684 75.664 62.5935 75.9361 62.4186 76.254C62.2437 76.5262 62.0254 76.8892 61.8944 77.162C61.7194 77.4341 61.5884 77.7063 61.4568 78.0242C61.1947 78.4781 60.9764 78.9315 60.8015 79.3403C60.5827 79.7485 60.4078 80.1574 60.2767 80.5204C60.5394 80.7016 60.8454 80.9286 61.1947 81.0647C61.5884 81.2008 61.9816 81.3369 62.3747 81.4278C62.8117 81.5187 63.2055 81.5638 63.5548 81.6096C63.9485 81.6548 64.2983 81.6999 64.5604 81.6999ZM66.3963 74.5297V81.6547C66.6145 81.6547 66.8767 81.6999 67.1393 81.6547C67.4014 81.6547 67.7074 81.6096 67.9695 81.5638C68.4504 81.4735 69.0185 81.3369 69.4555 81.2008C69.9364 81.0195 70.3735 80.7926 70.6795 80.5204C70.1547 79.2043 69.5866 78.1602 69.0185 77.162C68.4504 76.1631 67.7946 75.3009 67.0954 74.5748V74.5297H66.3963ZM61.6756 74.9379V74.8927C61.3696 75.0288 61.0636 75.2558 60.7138 75.3919C60.4078 75.5279 60.0146 75.7092 59.7086 75.891C59.0967 76.2089 58.4847 76.5719 57.8728 76.9802C57.3047 77.3884 56.7366 77.8423 56.2557 78.2963C56.4306 78.4781 56.6494 78.6594 56.8238 78.7954C56.9987 78.9315 57.2175 79.1133 57.4357 79.2946C57.6107 79.3855 57.8295 79.5216 58.0477 79.7034C58.2665 79.8395 58.5286 80.0207 58.7907 80.2025C59.1406 79.3855 59.4904 78.5233 59.9274 77.7514C60.3645 76.935 60.8454 76.1631 61.3257 75.4828C61.3696 75.3919 61.4135 75.3009 61.5006 75.21C61.5445 75.1649 61.5884 75.0288 61.6756 74.9379ZM75.0503 78.2963V78.2512C73.9575 77.3884 72.9962 76.6623 72.0344 76.2089C71.0726 75.7549 70.1114 75.3009 69.2373 74.9379C69.9364 75.664 70.5484 76.5719 70.9416 77.4341C71.3786 78.3415 71.8156 79.2946 72.1655 80.2025C72.3404 80.1116 72.5586 80.0207 72.8213 79.8395C73.0395 79.7034 73.3455 79.5673 73.6076 79.4306C73.8703 79.2494 74.0885 79.0676 74.3506 78.8864C74.6133 78.6594 74.8754 78.4781 75.0503 78.2963ZM74.3073 88.4174H79.3335C79.3335 86.7381 78.9842 85.1493 78.3284 83.5158C77.7164 81.9269 76.8424 80.6107 75.7495 79.4764V79.4306C75.5313 79.7943 75.2253 80.1116 74.9193 80.3386C74.5694 80.5656 74.2635 80.7468 73.9136 80.9286C73.6954 81.0647 73.4766 81.2465 73.2583 81.3369C73.0395 81.4735 72.7336 81.5638 72.5153 81.6999C72.6903 82.063 72.8646 82.4718 73.0395 82.8348C73.1706 83.2431 73.3894 83.697 73.4766 84.1058C73.7393 84.832 73.9136 85.6032 74.0885 86.3745C74.2196 87.0555 74.3073 87.7816 74.3073 88.4174ZM58.4847 81.6999V81.6547C58.1354 81.4735 57.7417 81.3368 57.4357 81.1556C57.1297 80.9286 56.8238 80.7016 56.5617 80.5204C56.2996 80.3837 56.0375 80.2025 55.8187 80.0207C55.6004 79.8395 55.4255 79.6576 55.2506 79.4764C54.1138 80.6107 53.2836 81.8817 52.7589 83.3791C52.1908 84.8771 51.7976 86.5563 51.6227 88.3716H56.9987C56.9987 87.1012 57.1736 85.8754 57.4796 84.6501C57.7417 83.3791 58.1354 82.4266 58.4847 81.6999ZM64.5604 88.3716V83.1527C64.2106 83.1979 63.7736 83.1979 63.3804 83.1527C62.9434 83.107 62.5058 82.9709 62.1126 82.8348C61.7627 82.7439 61.3257 82.653 60.9764 82.5169C60.5827 82.4266 60.1896 82.2448 59.8836 82.063C59.6215 82.5169 59.4027 83.0618 59.2277 83.6519C59.0095 84.1962 58.8784 84.7862 58.7474 85.3311C58.6596 85.8754 58.6158 86.4654 58.5725 86.9646C58.5286 87.4643 58.4847 87.9634 58.4847 88.3716H64.5604ZM66.3963 83.2431V88.3716H72.8646C72.8646 88.0995 72.8646 87.7816 72.8213 87.4185C72.7336 87.1012 72.6903 86.6924 72.6464 86.3293C72.5153 85.7851 72.3843 85.195 72.2094 84.6501C72.0344 84.151 71.8595 83.6519 71.6413 83.2431C71.5535 83.0161 71.4663 82.7439 71.3786 82.5627C71.2475 82.3357 71.1165 82.1996 71.0293 82.063C70.5484 82.4266 69.8926 82.653 69.1057 82.8348C68.3627 83.0161 67.4886 83.1979 66.7017 83.2431H66.3963ZM56.9987 89.8696H51.6227C51.6227 90.6409 51.7537 91.5031 51.9725 92.5471C52.1908 93.6362 52.6278 94.6345 53.1087 95.7243C53.3275 96.2686 53.5896 96.8135 53.8517 97.3577C54.1577 97.8569 54.5076 98.4018 54.8569 98.9009C55.1195 98.7196 55.3816 98.583 55.6004 98.4469C55.8625 98.3108 56.1685 98.1296 56.4306 97.9935C56.7366 97.8569 57.0426 97.7208 57.3924 97.5396C57.6984 97.4035 58.0916 97.2217 58.4847 97.0404C58.1354 95.9055 57.7417 94.8163 57.4796 93.5911C57.1736 92.411 56.9987 91.2309 56.9987 89.9148V89.8696ZM64.5604 95.1794V89.8696H58.4847C58.4847 90.2327 58.5286 90.7769 58.6158 91.3218C58.6596 91.8661 58.7907 92.4562 58.8785 93.0462C59.0528 93.682 59.1844 94.3172 59.3588 94.8615C59.5337 95.4064 59.7086 95.8603 59.8836 96.2686C60.6705 95.9507 61.4568 95.7243 61.9816 95.5876C62.5496 95.4064 63.0744 95.2703 63.5986 95.2246H64.0795C64.2545 95.1794 64.4294 95.1794 64.5604 95.1794ZM66.3963 89.8696V95.1342C66.7017 95.1794 67.0516 95.2246 67.4014 95.2703C67.7946 95.3155 68.2755 95.4064 68.6687 95.4973L69.3245 95.6334C69.5433 95.7243 69.8054 95.7694 70.0236 95.8146C70.2863 95.9055 70.5484 95.9507 70.8105 96.0416C71.0293 96.1325 71.2476 96.1777 71.4225 96.2686C71.9906 94.7712 72.3404 93.5453 72.5586 92.5019C72.7774 91.5031 72.8646 90.6409 72.8646 89.9148V89.8696H66.3963ZM79.3335 89.9148V89.8696H74.3073V90.1417C74.2635 91.0039 74.1324 92.0022 73.9575 93.0462C73.7826 94.0451 73.3894 95.2245 72.8646 96.6774C73.5643 97.0404 74.2196 97.4035 74.7444 97.7666C75.2686 98.1296 75.7495 98.5378 76.0993 98.9009C76.8423 98.1296 77.4976 97.0856 78.0663 95.7243C78.6343 94.4081 79.0275 93.0462 79.2463 91.594C79.2902 91.3218 79.2902 91.0497 79.3335 90.7769V89.9148ZM64.5604 103.712V96.6316C63.4676 96.8134 62.5496 97.0404 61.8505 97.2217C61.1514 97.4035 60.6266 97.5847 60.2767 97.7666C60.5394 98.4469 60.8015 99.037 61.0636 99.5818C61.3257 100.081 61.6317 100.626 61.8944 101.079C61.9815 101.261 62.1565 101.442 62.2875 101.669C62.4186 101.851 62.5058 102.078 62.6374 102.259C62.7684 102.486 62.8995 102.758 63.0305 103.031C63.2055 103.258 63.3365 103.53 63.5115 103.712H64.5604ZM66.3963 103.712H67.4014C67.7946 103.394 68.1883 102.94 68.4943 102.441C68.8436 101.942 69.2373 101.352 69.4994 100.852C69.8054 100.262 70.1114 99.7179 70.3735 99.173C70.6356 98.6287 70.8544 98.1296 71.0293 97.7666C70.5484 97.5847 69.8926 97.4035 69.2373 97.2217C68.5815 97.0404 67.6635 96.8586 66.3963 96.6774V103.712ZM75.0503 99.9901V99.9449C74.9626 99.8088 74.7882 99.627 74.6566 99.4909C74.5256 99.3549 74.3073 99.173 74.0885 99.037C73.9136 98.9009 73.6954 98.7648 73.4333 98.6287C73.1706 98.4927 72.8213 98.3108 72.5153 98.1296C72.3404 98.4927 72.0344 99.1279 71.5974 99.9901C71.2037 100.852 70.5045 101.896 69.6305 103.031C70.7233 102.849 71.6846 102.441 72.5586 101.896C73.5205 101.397 74.3506 100.716 75.0503 99.9901ZM58.7907 98.5378V98.4927C58.4847 98.6739 58.0038 98.9009 57.5235 99.1279C56.9987 99.3549 56.4306 99.627 55.9058 99.9901C56.2118 100.262 56.5178 100.535 56.7805 100.716C57.0426 100.943 57.3485 101.125 57.6107 101.306C58.0916 101.624 58.6597 101.942 59.2277 102.214C59.7964 102.486 60.4955 102.758 61.3696 103.031C61.0636 102.668 60.8454 102.214 60.6266 101.851C60.4078 101.488 60.1457 101.125 59.9274 100.762C59.7086 100.399 59.5337 99.9901 59.3588 99.627C59.1405 99.2639 58.9656 98.9009 58.7907 98.5378Z" fill="black"/>
<path d="M61.0567 89.2207L60.8048 89.3193H60.7262L60.6316 89.7793V90.0086V90.3045L60.8048 90.5345L60.6316 90.7312V91.0105V91.2238V91.6177H60.9307H61.1985L61.6236 91.5191L62.0173 91.6177L62.3632 91.7657L62.4891 91.9457L62.631 92.1923L62.8042 92.4056L62.7096 92.537V92.7996L62.9928 93.1282L63.2293 93.2595L63.6071 93.4235L63.8116 93.2595H64.2207H64.5985L65.1181 93.1282L65.4013 93.0129L65.5905 92.7996L65.7005 92.537V92.1923V91.9457L65.921 91.7657L66.1728 91.5191L66.4406 91.3385L66.5506 91.1251L66.8025 91.0105H67.0857L67.2748 91.1251V91.3385L67.5267 91.5191H67.7153L67.9517 91.3385L68.1403 91.0105L68.219 90.7312L68.3136 90.4359V90.1732L68.4868 89.6806H68.7546L69.0537 89.5V89.0567L69.2423 88.7941L69.3683 88.4988V88.2522L69.4788 87.9408L69.6201 87.7435L69.8566 87.6122L70.2343 87.4975L70.5175 87.2016V86.9723L70.423 86.7423L70.3284 86.611H70.2343L69.9506 86.4797L69.8566 86.3317L69.9506 86.0197L69.8566 85.8724H69.6987H69.4788L69.3683 85.6585H69.2423H69.0537H68.8486L68.5654 85.8724H68.3136L68.1403 85.6585H67.8258H67.3694L66.8025 85.8724L66.3301 86.0197H65.811L65.4013 85.8724L65.1181 85.6585H64.8976L64.5985 85.8724L64.4253 86.0197H64.2207L64.0008 85.8724L63.8116 85.4945H63.6071L63.4179 85.3471H63.1034H62.7096H62.3632L62.1433 85.4945L62.0173 85.6585L61.9227 86.0197L61.6236 86.3317L61.4977 86.7423L61.4191 87.2016L61.4977 87.4975L61.6236 87.7435V88.0721L61.4977 88.2522L61.4191 88.6134L61.1985 88.8761L61.0567 89.2207Z" fill="black"/>
<path d="M82.4131 93.4876C82.8193 93.66 82.894 94.2268 82.5475 94.5073L78.9601 97.4135C78.6137 97.694 78.106 97.4783 78.0462 97.0255L77.4262 92.3325C77.3664 91.8791 77.7994 91.5286 78.2057 91.7009L82.4131 93.4876Z" fill="black"/>
<path d="M169.833 69.737C169.833 71.1226 168.71 72.2458 167.325 72.2458H165.847C165.15 72.2458 164.484 71.9558 164.01 71.4452L148.671 54.9471C147.119 53.2778 144.325 54.376 144.325 56.6553V69.737C144.325 71.1226 143.202 72.2458 141.816 72.2458H141.755C140.369 72.2458 139.246 71.1226 139.246 69.737V47.1196C139.246 45.7341 140.369 44.6108 141.755 44.6108H143.233C143.93 44.6108 144.595 44.9002 145.069 45.4097L160.41 61.88C161.962 63.5471 164.754 62.4484 164.754 60.1701V47.1196C164.754 45.7341 165.877 44.6108 167.263 44.6108H167.325C168.71 44.6108 169.833 45.7341 169.833 47.1196V69.737Z" fill="white"/>
<path d="M176.594 61.3185C176.594 59.1014 177.227 57.1614 178.492 55.4985C179.757 53.8093 181.488 52.5028 183.683 51.579C185.916 50.6552 188.39 50.1933 191.107 50.1933C193.786 50.1933 196.112 50.6024 198.084 51.4206C198.911 51.7639 199.65 52.1444 200.301 52.562C201.112 53.0827 202.493 52.5265 202.493 51.5626C202.493 51.0031 202.947 50.5496 203.506 50.5496H205.12C206.505 50.5496 207.629 51.6728 207.629 53.0584V69.737C207.629 71.1226 206.505 72.2458 205.12 72.2458H203.537C202.961 72.2458 202.493 71.7786 202.493 71.2024C202.493 70.2138 201.091 69.6469 200.261 70.184C199.589 70.619 198.826 71.0159 197.972 71.3748C196 72.193 193.693 72.6021 191.051 72.6021C188.334 72.6021 185.879 72.127 183.683 71.1768C181.488 70.2266 179.757 68.8937 178.492 67.1781C177.227 65.4624 176.594 63.5092 176.594 61.3185ZM202.493 61.3581C202.493 59.7216 202.028 58.2963 201.098 57.0822C200.168 55.8681 198.903 54.9443 197.302 54.3108C195.74 53.6509 194.009 53.321 192.111 53.321C190.214 53.321 188.483 53.6377 186.92 54.2712C185.358 54.9047 184.111 55.8285 183.181 57.0426C182.25 58.2567 181.785 59.682 181.785 61.3185C181.785 62.9813 182.25 64.433 183.181 65.6736C184.111 66.8877 185.358 67.8247 186.92 68.4846C188.483 69.118 190.214 69.4348 192.111 69.4348C194.009 69.4348 195.74 69.118 197.302 68.4846C198.903 67.8247 200.168 66.8877 201.098 65.6736C202.028 64.433 202.493 62.9945 202.493 61.3581Z" fill="white"/>
<path d="M218.836 47.0259C217.868 47.0259 217.049 46.7884 216.38 46.3133C215.71 45.8382 215.375 45.2575 215.375 44.5713C215.375 43.885 215.71 43.3043 216.38 42.8292C217.049 42.3541 217.868 42.1166 218.836 42.1166C219.766 42.1166 220.547 42.3541 221.18 42.8292C221.85 43.3043 222.185 43.885 222.185 44.5713C222.185 45.2575 221.85 45.8382 221.18 46.3133C220.547 46.7884 219.766 47.0259 218.836 47.0259ZM218.783 50.5496C220.168 50.5496 221.292 51.6728 221.292 53.0584V69.737C221.292 71.1226 220.168 72.2458 218.783 72.2458H218.721C217.335 72.2458 216.212 71.1226 216.212 69.737V53.0584C216.212 51.6728 217.335 50.5496 218.721 50.5496H218.783Z" fill="white"/>
<path d="M232.683 47.0259C231.716 47.0259 230.897 46.7884 230.228 46.3133C229.595 45.8382 229.279 45.2575 229.279 44.5713C229.279 43.885 229.595 43.3043 230.228 42.8292C230.897 42.3541 231.716 42.1166 232.683 42.1166C233.651 42.1166 234.451 42.3541 235.084 42.8292C235.753 43.3043 236.088 43.885 236.088 44.5713C236.088 45.2575 235.753 45.8382 235.084 46.3133C234.451 46.7884 233.651 47.0259 232.683 47.0259ZM235.195 76.9572C235.195 78.884 234.507 80.2961 233.13 81.1935C231.753 82.0909 229.744 82.5396 227.102 82.5396H225.668C224.826 82.5396 224.143 81.8571 224.143 81.0153C224.143 80.1735 224.826 79.491 225.668 79.491H226.265C227.679 79.491 228.665 79.2931 229.223 78.8972C229.818 78.5012 230.116 77.8282 230.116 76.878V53.0584C230.116 51.6728 231.239 50.5496 232.625 50.5496H232.686C234.072 50.5496 235.195 51.6728 235.195 53.0584V76.9572Z" fill="white"/>
<path d="M241.896 61.3185C241.896 59.1014 242.528 57.1614 243.794 55.4985C245.059 53.8093 246.789 52.5028 248.985 51.579C251.217 50.6552 253.692 50.1933 256.408 50.1933C259.088 50.1933 261.413 50.6024 263.385 51.4206C264.213 51.7639 264.952 52.1444 265.603 52.562C266.414 53.0827 267.795 52.5265 267.795 51.5626C267.795 51.0031 268.249 50.5496 268.808 50.5496H270.421C271.807 50.5496 272.93 51.6728 272.93 53.0584V69.737C272.93 71.1226 271.807 72.2458 270.421 72.2458H268.838C268.262 72.2458 267.795 71.7786 267.795 71.2024C267.795 70.2138 266.393 69.6469 265.563 70.184C264.89 70.619 264.127 71.0159 263.274 71.3748C261.302 72.193 258.995 72.6021 256.353 72.6021C253.636 72.6021 251.18 72.127 248.985 71.1768C246.789 70.2266 245.059 68.8937 243.794 67.1781C242.528 65.4624 241.896 63.5092 241.896 61.3185ZM267.795 61.3581C267.795 59.7216 267.33 58.2963 266.4 57.0822C265.469 55.8681 264.204 54.9443 262.604 54.3108C261.041 53.6509 259.311 53.321 257.413 53.321C255.515 53.321 253.785 53.6377 252.222 54.2712C250.659 54.9047 249.413 55.8285 248.482 57.0426C247.552 58.2567 247.087 59.682 247.087 61.3185C247.087 62.9813 247.552 64.433 248.482 65.6736C249.413 66.8877 250.659 67.8247 252.222 68.4846C253.785 69.118 255.515 69.4348 257.413 69.4348C259.311 69.4348 261.041 69.118 262.604 68.4846C264.204 67.8247 265.469 66.8877 266.4 65.6736C267.33 64.433 267.795 62.9945 267.795 61.3581Z" fill="white"/>
<path d="M158.745 99.2052C158.745 100.507 158.475 101.693 157.934 102.762C157.405 103.832 156.69 104.799 155.788 105.662C154.898 106.513 153.874 107.254 152.714 107.885C151.567 108.517 150.368 109.045 149.118 109.47C147.881 109.909 146.637 110.237 145.387 110.456C144.15 110.688 143.003 110.824 141.946 110.862L141.675 109.896C142.526 109.715 143.428 109.477 144.382 109.18C145.336 108.897 146.276 108.542 147.204 108.117C148.145 107.705 149.034 107.221 149.872 106.667C150.723 106.113 151.47 105.482 152.115 104.773C152.759 104.051 153.268 103.258 153.642 102.395C154.029 101.519 154.222 100.552 154.222 99.4952C154.222 98.6961 154.035 97.9744 153.661 97.33C153.3 96.6727 152.823 96.1186 152.231 95.6675C151.651 95.2035 150.987 94.8491 150.239 94.6042C149.505 94.3465 148.764 94.2176 148.016 94.2176C147.127 94.2176 146.251 94.3271 145.387 94.5462C144.524 94.7524 143.673 95.0166 142.835 95.3388L142.507 94.5462C143.087 94.2885 143.699 93.9792 144.343 93.6183C145.001 93.2574 145.638 92.8579 146.257 92.4197C146.889 91.9687 147.488 91.4789 148.055 90.9505C148.622 90.4092 149.118 89.8357 149.544 89.23C149.982 88.6114 150.33 87.967 150.587 87.2968C150.845 86.6137 150.974 85.8985 150.974 85.151C150.974 84.6741 150.897 84.2424 150.742 83.8557C150.6 83.4562 150.388 83.1147 150.104 82.8311C149.821 82.5347 149.479 82.3092 149.08 82.1545C148.693 81.987 148.261 81.9032 147.784 81.9032C147.011 81.9032 146.328 82.0708 145.735 82.4058C145.155 82.7409 144.646 83.1856 144.208 83.7397C143.783 84.2939 143.422 84.9319 143.125 85.6536C142.842 86.3624 142.61 87.0906 142.429 87.8381C142.262 88.5856 142.139 89.3266 142.062 90.0613C141.985 90.783 141.946 91.4338 141.946 92.0138V106.938L137.964 108.349V94.1403C137.964 92.8901 138.106 91.6722 138.389 90.4866C138.673 89.3009 139.079 88.1796 139.607 87.1228C140.148 86.0531 140.799 85.0736 141.559 84.1844C142.333 83.2951 143.196 82.5347 144.15 81.9032C145.117 81.2588 146.167 80.7562 147.301 80.3953C148.448 80.0345 149.66 79.854 150.935 79.854C151.515 79.854 152.076 79.9314 152.617 80.086C153.159 80.2407 153.629 80.4791 154.029 80.8013C154.441 81.1235 154.77 81.523 155.014 81.9999C155.259 82.4767 155.382 83.0309 155.382 83.6624C155.382 84.3455 155.24 85.0221 154.956 85.6923C154.686 86.3495 154.318 86.9939 153.855 87.6254C153.391 88.2569 152.862 88.8627 152.269 89.4426C151.676 90.0097 151.058 90.5381 150.413 91.0278C149.782 91.5176 149.15 91.9558 148.519 92.3424C147.887 92.729 147.307 93.0512 146.779 93.309C148.094 92.9997 149.44 92.845 150.819 92.845C151.825 92.845 152.798 92.9675 153.739 93.2123C154.692 93.4443 155.536 93.8181 156.271 94.3336C157.019 94.8362 157.618 95.4935 158.069 96.3054C158.52 97.1045 158.745 98.0711 158.745 99.2052ZM177.033 105.662C176.879 105.997 176.685 106.313 176.453 106.609C176.221 106.906 175.951 107.17 175.641 107.402C175.345 107.634 175.016 107.821 174.656 107.963C174.308 108.091 173.94 108.156 173.554 108.156C172.536 108.156 171.801 107.879 171.35 107.325C170.912 106.758 170.693 105.991 170.693 105.024V104.676C170.461 105.114 170.196 105.552 169.9 105.991C169.616 106.429 169.288 106.822 168.914 107.17C168.553 107.518 168.147 107.801 167.696 108.021C167.245 108.24 166.742 108.349 166.188 108.349C165.351 108.349 164.609 108.188 163.965 107.866C163.321 107.544 162.779 107.112 162.341 106.571C161.903 106.016 161.574 105.372 161.355 104.637C161.136 103.903 161.027 103.123 161.027 102.298C161.027 101.177 161.22 100.062 161.607 98.9539C162.006 97.8326 162.56 96.8338 163.269 95.9575C163.991 95.0811 164.848 94.3722 165.84 93.831C166.846 93.2768 167.96 92.9997 169.185 92.9997C169.674 92.9997 170.164 93.0448 170.654 93.135C171.144 93.2252 171.608 93.3734 172.046 93.5796C172.497 93.773 172.903 94.0307 173.264 94.3529C173.637 94.6751 173.94 95.0682 174.172 95.5322L171.292 96.7501C171.137 96.5052 170.957 96.2732 170.751 96.0541C170.557 95.8221 170.338 95.6224 170.093 95.4548C169.861 95.2873 169.61 95.152 169.339 95.0489C169.069 94.9458 168.785 94.8942 168.489 94.8942C167.819 94.8942 167.219 95.1004 166.691 95.5128C166.175 95.9252 165.731 96.4343 165.357 97.04C164.996 97.6458 164.719 98.2902 164.526 98.9732C164.332 99.6563 164.236 100.275 164.236 100.829C164.236 101.319 164.281 101.873 164.371 102.492C164.474 103.097 164.648 103.671 164.893 104.212C165.138 104.753 165.46 105.211 165.86 105.585C166.259 105.958 166.762 106.145 167.367 106.145C167.844 106.145 168.257 106.042 168.605 105.836C168.953 105.617 169.249 105.34 169.494 105.005C169.739 104.657 169.939 104.264 170.093 103.826C170.261 103.374 170.383 102.917 170.461 102.453C170.551 101.989 170.609 101.531 170.635 101.08C170.673 100.616 170.693 100.204 170.693 99.8432V98.5093L174.211 97.272V105.121C174.211 105.379 174.275 105.617 174.404 105.836C174.533 106.042 174.733 106.145 175.004 106.145C175.326 106.145 175.616 106.029 175.873 105.797C176.144 105.552 176.357 105.308 176.511 105.063L177.033 105.662ZM192.46 100.288C192.46 101.203 192.235 102.137 191.784 103.091C191.345 104.032 190.765 104.895 190.044 105.681C189.322 106.468 188.497 107.112 187.569 107.615C186.654 108.104 185.72 108.349 184.766 108.349C183.877 108.349 183.091 108.201 182.408 107.905C181.725 107.595 181.151 107.176 180.687 106.648C180.223 106.107 179.869 105.475 179.624 104.753C179.392 104.019 179.276 103.226 179.276 102.376V81.4779L182.833 80.2407V103.014C182.833 103.452 182.891 103.884 183.007 104.309C183.123 104.734 183.297 105.121 183.529 105.469C183.761 105.804 184.051 106.081 184.399 106.3C184.76 106.506 185.185 106.609 185.675 106.609C186.268 106.609 186.783 106.468 187.221 106.184C187.672 105.888 188.046 105.514 188.343 105.063C188.652 104.599 188.877 104.096 189.019 103.555C189.174 103.014 189.251 102.492 189.251 101.989C189.251 101.241 189.109 100.488 188.826 99.7272C188.555 98.9539 188.175 98.2579 187.685 97.6393C187.195 97.0207 186.622 96.5052 185.965 96.0928C185.307 95.6804 184.605 95.4419 183.858 95.3775L187.067 92.9997C187.763 93.2317 188.433 93.599 189.077 94.1016C189.734 94.5913 190.314 95.1649 190.817 95.8221C191.32 96.4794 191.719 97.1947 192.016 97.968C192.312 98.7412 192.46 99.5145 192.46 100.288ZM210.787 105.662C210.632 105.997 210.439 106.313 210.207 106.609C209.975 106.906 209.704 107.17 209.395 107.402C209.098 107.634 208.77 107.821 208.409 107.963C208.061 108.091 207.694 108.156 207.307 108.156C206.289 108.156 205.554 107.879 205.103 107.325C204.665 106.758 204.446 105.991 204.446 105.024V104.676C204.214 105.114 203.95 105.552 203.653 105.991C203.37 106.429 203.041 106.822 202.667 107.17C202.307 107.518 201.901 107.801 201.449 108.021C200.998 108.24 200.496 108.349 199.942 108.349C199.104 108.349 198.363 108.188 197.718 107.866C197.074 107.544 196.533 107.112 196.095 106.571C195.656 106.016 195.328 105.372 195.109 104.637C194.89 103.903 194.78 103.123 194.78 102.298C194.78 101.177 194.973 100.062 195.36 98.9539C195.759 97.8326 196.314 96.8338 197.023 95.9575C197.744 95.0811 198.601 94.3722 199.594 93.831C200.599 93.2768 201.714 92.9997 202.938 92.9997C203.428 92.9997 203.918 93.0448 204.407 93.135C204.897 93.2252 205.361 93.3734 205.799 93.5796C206.25 93.773 206.656 94.0307 207.017 94.3529C207.391 94.6751 207.694 95.0682 207.926 95.5322L205.045 96.7501C204.891 96.5052 204.71 96.2732 204.504 96.0541C204.311 95.8221 204.092 95.6224 203.847 95.4548C203.615 95.2873 203.363 95.152 203.093 95.0489C202.822 94.9458 202.539 94.8942 202.242 94.8942C201.572 94.8942 200.973 95.1004 200.444 95.5128C199.929 95.9252 199.484 96.4343 199.11 97.04C198.749 97.6458 198.472 98.2902 198.279 98.9732C198.086 99.6563 197.989 100.275 197.989 100.829C197.989 101.319 198.034 101.873 198.124 102.492C198.228 103.097 198.402 103.671 198.646 104.212C198.891 104.753 199.213 105.211 199.613 105.585C200.012 105.958 200.515 106.145 201.121 106.145C201.598 106.145 202.01 106.042 202.358 105.836C202.706 105.617 203.002 105.34 203.247 105.005C203.492 104.657 203.692 104.264 203.847 103.826C204.014 103.374 204.137 102.917 204.214 102.453C204.304 101.989 204.362 101.531 204.388 101.08C204.427 100.616 204.446 100.204 204.446 99.8432V98.5093L207.964 97.272V105.121C207.964 105.379 208.029 105.617 208.158 105.836C208.287 106.042 208.486 106.145 208.757 106.145C209.079 106.145 209.369 106.029 209.627 105.797C209.897 105.552 210.11 105.308 210.265 105.063L210.787 105.662Z" fill="white"/>
<path d="M146.814 125.64H145.384L141.081 119.13V125.64H139.651V116.91H141.081L145.384 123.408V116.91H146.814V125.64ZM149.419 117.813C149.16 117.813 148.943 117.725 148.767 117.55C148.591 117.374 148.503 117.157 148.503 116.897C148.503 116.638 148.591 116.421 148.767 116.245C148.943 116.069 149.16 115.982 149.419 115.982C149.67 115.982 149.883 116.069 150.059 116.245C150.235 116.421 150.322 116.638 150.322 116.897C150.322 117.157 150.235 117.374 150.059 117.55C149.883 117.725 149.67 117.813 149.419 117.813ZM150.122 118.729V125.64H148.692V118.729H150.122ZM154.784 118.616C155.319 118.616 155.792 118.725 156.201 118.942C156.619 119.151 156.946 119.415 157.18 119.732V118.729H158.622V125.753C158.622 126.389 158.488 126.953 158.221 127.447C157.953 127.949 157.564 128.342 157.054 128.626C156.553 128.91 155.95 129.052 155.248 129.052C154.311 129.052 153.534 128.831 152.915 128.388C152.296 127.953 151.945 127.359 151.861 126.606H153.279C153.387 126.966 153.617 127.254 153.968 127.472C154.328 127.698 154.755 127.811 155.248 127.811C155.825 127.811 156.289 127.635 156.64 127.284C157 126.932 157.18 126.422 157.18 125.753V124.599C156.937 124.925 156.607 125.201 156.189 125.427C155.779 125.645 155.311 125.753 154.784 125.753C154.182 125.753 153.63 125.603 153.128 125.302C152.635 124.992 152.242 124.566 151.949 124.022C151.665 123.47 151.522 122.847 151.522 122.153C151.522 121.459 151.665 120.845 151.949 120.309C152.242 119.774 152.635 119.36 153.128 119.067C153.63 118.766 154.182 118.616 154.784 118.616ZM157.18 122.178C157.18 121.702 157.079 121.288 156.879 120.936C156.686 120.585 156.431 120.318 156.113 120.134C155.796 119.95 155.453 119.858 155.085 119.858C154.717 119.858 154.374 119.95 154.056 120.134C153.739 120.309 153.479 120.573 153.279 120.924C153.086 121.267 152.99 121.677 152.99 122.153C152.99 122.63 153.086 123.048 153.279 123.408C153.479 123.767 153.739 124.043 154.056 124.236C154.382 124.42 154.725 124.511 155.085 124.511C155.453 124.511 155.796 124.42 156.113 124.236C156.431 124.052 156.686 123.784 156.879 123.433C157.079 123.073 157.18 122.655 157.18 122.178ZM166.835 122.015C166.835 122.275 166.818 122.509 166.785 122.718H161.504C161.546 123.27 161.751 123.713 162.119 124.047C162.487 124.382 162.938 124.549 163.473 124.549C164.243 124.549 164.786 124.227 165.104 123.583H166.647C166.438 124.219 166.057 124.741 165.506 125.151C164.962 125.553 164.285 125.753 163.473 125.753C162.813 125.753 162.219 125.607 161.692 125.314C161.174 125.013 160.764 124.595 160.463 124.06C160.17 123.516 160.024 122.889 160.024 122.178C160.024 121.468 160.166 120.845 160.45 120.309C160.743 119.766 161.149 119.348 161.667 119.055C162.194 118.762 162.796 118.616 163.473 118.616C164.126 118.616 164.707 118.758 165.217 119.042C165.727 119.327 166.124 119.728 166.409 120.247C166.693 120.757 166.835 121.346 166.835 122.015ZM165.342 121.564C165.334 121.037 165.146 120.615 164.778 120.297C164.41 119.979 163.954 119.82 163.411 119.82C162.917 119.82 162.495 119.979 162.144 120.297C161.793 120.606 161.583 121.028 161.517 121.564H165.342ZM169.672 119.732C169.882 119.381 170.157 119.109 170.5 118.917C170.852 118.716 171.266 118.616 171.742 118.616V120.096H171.378C170.818 120.096 170.392 120.238 170.099 120.523C169.815 120.807 169.672 121.3 169.672 122.003V125.64H168.242V118.729H169.672V119.732ZM173.784 117.813C173.525 117.813 173.308 117.725 173.132 117.55C172.956 117.374 172.868 117.157 172.868 116.897C172.868 116.638 172.956 116.421 173.132 116.245C173.308 116.069 173.525 115.982 173.784 115.982C174.035 115.982 174.248 116.069 174.424 116.245C174.6 116.421 174.687 116.638 174.687 116.897C174.687 117.157 174.6 117.374 174.424 117.55C174.248 117.725 174.035 117.813 173.784 117.813ZM174.487 118.729V125.64H173.057V118.729H174.487ZM175.887 122.153C175.887 121.459 176.03 120.845 176.314 120.309C176.607 119.774 177 119.36 177.493 119.067C177.995 118.766 178.547 118.616 179.149 118.616C179.692 118.616 180.165 118.725 180.566 118.942C180.976 119.151 181.302 119.415 181.545 119.732V118.729H182.987V125.64H181.545V124.612C181.302 124.938 180.972 125.21 180.554 125.427C180.136 125.645 179.659 125.753 179.124 125.753C178.53 125.753 177.986 125.603 177.493 125.302C177 124.992 176.607 124.566 176.314 124.022C176.03 123.47 175.887 122.847 175.887 122.153ZM181.545 122.178C181.545 121.702 181.444 121.288 181.244 120.936C181.051 120.585 180.796 120.318 180.478 120.134C180.161 119.95 179.818 119.858 179.45 119.858C179.082 119.858 178.739 119.95 178.421 120.134C178.104 120.309 177.844 120.573 177.644 120.924C177.451 121.267 177.355 121.677 177.355 122.153C177.355 122.63 177.451 123.048 177.644 123.408C177.844 123.767 178.104 124.043 178.421 124.236C178.747 124.42 179.09 124.511 179.45 124.511C179.818 124.511 180.161 124.42 180.478 124.236C180.796 124.052 181.051 123.784 181.244 123.433C181.444 123.073 181.545 122.655 181.545 122.178ZM192.79 121.162C193.259 121.246 193.656 121.493 193.982 121.902C194.308 122.312 194.471 122.776 194.471 123.295C194.471 123.738 194.354 124.139 194.12 124.499C193.894 124.85 193.564 125.13 193.129 125.339C192.694 125.54 192.188 125.64 191.611 125.64H188.124V116.922H191.448C192.042 116.922 192.552 117.023 192.978 117.224C193.405 117.424 193.727 117.696 193.944 118.039C194.162 118.373 194.27 118.75 194.27 119.168C194.27 119.67 194.137 120.088 193.869 120.422C193.601 120.757 193.242 121.003 192.79 121.162ZM189.554 120.585H191.323C191.791 120.585 192.155 120.481 192.414 120.272C192.682 120.054 192.815 119.745 192.815 119.343C192.815 118.95 192.682 118.645 192.414 118.428C192.155 118.202 191.791 118.089 191.323 118.089H189.554V120.585ZM191.486 124.474C191.971 124.474 192.351 124.357 192.627 124.123C192.903 123.888 193.041 123.562 193.041 123.144C193.041 122.718 192.895 122.379 192.602 122.128C192.309 121.877 191.921 121.752 191.436 121.752H189.554V124.474H191.486ZM202.36 122.015C202.36 122.275 202.343 122.509 202.31 122.718H197.029C197.07 123.27 197.275 123.713 197.643 124.047C198.011 124.382 198.463 124.549 198.998 124.549C199.767 124.549 200.311 124.227 200.629 123.583H202.172C201.963 124.219 201.582 124.741 201.03 125.151C200.487 125.553 199.809 125.753 198.998 125.753C198.337 125.753 197.744 125.607 197.217 125.314C196.698 125.013 196.289 124.595 195.988 124.06C195.695 123.516 195.548 122.889 195.548 122.178C195.548 121.468 195.691 120.845 195.975 120.309C196.268 119.766 196.673 119.348 197.192 119.055C197.719 118.762 198.321 118.616 198.998 118.616C199.65 118.616 200.232 118.758 200.742 119.042C201.252 119.327 201.649 119.728 201.933 120.247C202.218 120.757 202.36 121.346 202.36 122.015ZM200.867 121.564C200.859 121.037 200.671 120.615 200.303 120.297C199.935 119.979 199.479 119.82 198.935 119.82C198.442 119.82 198.02 119.979 197.668 120.297C197.317 120.606 197.108 121.028 197.041 121.564H200.867ZM206.276 125.753C205.732 125.753 205.243 125.657 204.808 125.465C204.382 125.264 204.043 124.997 203.792 124.662C203.541 124.319 203.407 123.939 203.391 123.521H204.871C204.896 123.813 205.034 124.06 205.285 124.261C205.544 124.453 205.866 124.549 206.251 124.549C206.652 124.549 206.962 124.474 207.179 124.323C207.405 124.164 207.518 123.964 207.518 123.721C207.518 123.462 207.392 123.27 207.141 123.144C206.899 123.019 206.51 122.881 205.975 122.73C205.456 122.588 205.034 122.45 204.708 122.316C204.382 122.183 204.097 121.978 203.855 121.702C203.621 121.426 203.504 121.062 203.504 120.61C203.504 120.242 203.612 119.908 203.83 119.607C204.047 119.297 204.357 119.055 204.758 118.879C205.168 118.704 205.636 118.616 206.163 118.616C206.949 118.616 207.58 118.817 208.057 119.218C208.542 119.611 208.801 120.15 208.835 120.836H207.405C207.38 120.527 207.254 120.28 207.028 120.096C206.803 119.912 206.497 119.82 206.113 119.82C205.736 119.82 205.448 119.891 205.247 120.033C205.047 120.175 204.946 120.364 204.946 120.598C204.946 120.782 205.013 120.936 205.147 121.062C205.281 121.187 205.444 121.288 205.636 121.363C205.828 121.43 206.113 121.518 206.489 121.626C206.991 121.76 207.401 121.898 207.718 122.04C208.045 122.174 208.325 122.375 208.559 122.642C208.793 122.91 208.914 123.265 208.923 123.709C208.923 124.102 208.814 124.453 208.596 124.762C208.379 125.072 208.07 125.314 207.668 125.49C207.275 125.666 206.811 125.753 206.276 125.753ZM212.136 119.895V123.721C212.136 123.98 212.195 124.169 212.312 124.286C212.437 124.394 212.646 124.449 212.939 124.449H213.817V125.64H212.688C212.044 125.64 211.551 125.49 211.208 125.189C210.865 124.888 210.694 124.399 210.694 123.721V119.895H209.878V118.729H210.694V117.01H212.136V118.729H213.817V119.895H212.136ZM223.06 121.162C223.528 121.246 223.925 121.493 224.251 121.902C224.578 122.312 224.741 122.776 224.741 123.295C224.741 123.738 224.624 124.139 224.389 124.499C224.164 124.85 223.833 125.13 223.398 125.339C222.964 125.54 222.458 125.64 221.881 125.64H218.393V116.922H221.718C222.311 116.922 222.821 117.023 223.248 117.224C223.674 117.424 223.996 117.696 224.214 118.039C224.431 118.373 224.54 118.75 224.54 119.168C224.54 119.67 224.406 120.088 224.138 120.422C223.871 120.757 223.511 121.003 223.06 121.162ZM219.823 120.585H221.592C222.06 120.585 222.424 120.481 222.683 120.272C222.951 120.054 223.085 119.745 223.085 119.343C223.085 118.95 222.951 118.645 222.683 118.428C222.424 118.202 222.06 118.089 221.592 118.089H219.823V120.585ZM221.755 124.474C222.24 124.474 222.621 124.357 222.897 124.123C223.173 123.888 223.311 123.562 223.311 123.144C223.311 122.718 223.164 122.379 222.872 122.128C222.579 121.877 222.19 121.752 221.705 121.752H219.823V124.474H221.755ZM226.897 123.696C227.699 123.002 228.331 122.433 228.791 121.99C229.259 121.539 229.648 121.07 229.957 120.585C230.267 120.1 230.422 119.615 230.422 119.13C230.422 118.628 230.3 118.235 230.058 117.951C229.824 117.667 229.451 117.525 228.941 117.525C228.448 117.525 228.063 117.683 227.787 118.001C227.52 118.311 227.378 118.729 227.361 119.256H225.981C226.006 118.302 226.29 117.575 226.834 117.073C227.386 116.563 228.084 116.308 228.929 116.308C229.84 116.308 230.551 116.559 231.061 117.06C231.58 117.562 231.839 118.231 231.839 119.067C231.839 119.67 231.684 120.251 231.375 120.811C231.074 121.363 230.71 121.861 230.284 122.304C229.865 122.739 229.33 123.245 228.678 123.822L228.113 124.323H232.09V125.515H225.994V124.474L226.897 123.696ZM238.201 121.162C238.669 121.246 239.066 121.493 239.392 121.902C239.718 122.312 239.881 122.776 239.881 123.295C239.881 123.738 239.764 124.139 239.53 124.499C239.304 124.85 238.974 125.13 238.539 125.339C238.104 125.54 237.598 125.64 237.021 125.64H233.534V116.922H236.858C237.452 116.922 237.962 117.023 238.389 117.224C238.815 117.424 239.137 117.696 239.355 118.039C239.572 118.373 239.681 118.75 239.681 119.168C239.681 119.67 239.547 120.088 239.279 120.422C239.012 120.757 238.652 121.003 238.201 121.162ZM234.964 120.585H236.733C237.201 120.585 237.565 120.481 237.824 120.272C238.092 120.054 238.226 119.745 238.226 119.343C238.226 118.95 238.092 118.645 237.824 118.428C237.565 118.202 237.201 118.089 236.733 118.089H234.964V120.585ZM236.896 124.474C237.381 124.474 237.762 124.357 238.037 124.123C238.313 123.888 238.451 123.562 238.451 123.144C238.451 122.718 238.305 122.379 238.012 122.128C237.72 121.877 237.331 121.752 236.846 121.752H234.964V124.474H236.896ZM250.326 116.922V118.089H248.005V125.64H246.575V118.089H244.242V116.922H250.326ZM253.204 119.732C253.413 119.381 253.689 119.109 254.032 118.917C254.383 118.716 254.797 118.616 255.274 118.616V120.096H254.91C254.35 120.096 253.923 120.238 253.631 120.523C253.346 120.807 253.204 121.3 253.204 122.003V125.64H251.774V118.729H253.204V119.732ZM256.112 122.153C256.112 121.459 256.254 120.845 256.538 120.309C256.831 119.774 257.224 119.36 257.717 119.067C258.219 118.766 258.771 118.616 259.373 118.616C259.917 118.616 260.389 118.725 260.791 118.942C261.2 119.151 261.527 119.415 261.769 119.732V118.729H263.212V125.64H261.769V124.612C261.527 124.938 261.196 125.21 260.778 125.427C260.36 125.645 259.883 125.753 259.348 125.753C258.754 125.753 258.211 125.603 257.717 125.302C257.224 124.992 256.831 124.566 256.538 124.022C256.254 123.47 256.112 122.847 256.112 122.153ZM261.769 122.178C261.769 121.702 261.669 121.288 261.468 120.936C261.276 120.585 261.021 120.318 260.703 120.134C260.385 119.95 260.042 119.858 259.674 119.858C259.306 119.858 258.963 119.95 258.646 120.134C258.328 120.309 258.069 120.573 257.868 120.924C257.676 121.267 257.579 121.677 257.579 122.153C257.579 122.63 257.676 123.048 257.868 123.408C258.069 123.767 258.328 124.043 258.646 124.236C258.972 124.42 259.315 124.511 259.674 124.511C260.042 124.511 260.385 124.42 260.703 124.236C261.021 124.052 261.276 123.784 261.468 123.433C261.669 123.073 261.769 122.655 261.769 122.178ZM264.613 122.153C264.613 121.459 264.755 120.845 265.04 120.309C265.332 119.774 265.725 119.36 266.219 119.067C266.721 118.766 267.277 118.616 267.887 118.616C268.339 118.616 268.782 118.716 269.217 118.917C269.66 119.109 270.011 119.369 270.271 119.695V116.358H271.713V125.64H270.271V124.599C270.036 124.934 269.71 125.21 269.292 125.427C268.882 125.645 268.41 125.753 267.875 125.753C267.273 125.753 266.721 125.603 266.219 125.302C265.725 124.992 265.332 124.566 265.04 124.022C264.755 123.47 264.613 122.847 264.613 122.153ZM270.271 122.178C270.271 121.702 270.17 121.288 269.969 120.936C269.777 120.585 269.522 120.318 269.204 120.134C268.887 119.95 268.544 119.858 268.176 119.858C267.808 119.858 267.465 119.95 267.147 120.134C266.829 120.309 266.57 120.573 266.369 120.924C266.177 121.267 266.081 121.677 266.081 122.153C266.081 122.63 266.177 123.048 266.369 123.408C266.57 123.767 266.829 124.043 267.147 124.236C267.473 124.42 267.816 124.511 268.176 124.511C268.544 124.511 268.887 124.42 269.204 124.236C269.522 124.052 269.777 123.784 269.969 123.433C270.17 123.073 270.271 122.655 270.271 122.178ZM274.319 117.813C274.06 117.813 273.842 117.725 273.667 117.55C273.491 117.374 273.403 117.157 273.403 116.897C273.403 116.638 273.491 116.421 273.667 116.245C273.842 116.069 274.06 115.982 274.319 115.982C274.57 115.982 274.783 116.069 274.959 116.245C275.134 116.421 275.222 116.638 275.222 116.897C275.222 117.157 275.134 117.374 274.959 117.55C274.783 117.725 274.57 117.813 274.319 117.813ZM275.021 118.729V125.64H273.591V118.729H275.021ZM280.386 118.616C280.93 118.616 281.415 118.729 281.841 118.955C282.276 119.18 282.615 119.515 282.857 119.958C283.1 120.401 283.221 120.936 283.221 121.564V125.64H281.803V121.777C281.803 121.158 281.649 120.686 281.339 120.359C281.03 120.025 280.608 119.858 280.072 119.858C279.537 119.858 279.111 120.025 278.793 120.359C278.483 120.686 278.329 121.158 278.329 121.777V125.64H276.899V118.729H278.329V119.519C278.563 119.235 278.86 119.013 279.219 118.854C279.587 118.695 279.976 118.616 280.386 118.616ZM287.83 118.616C288.365 118.616 288.837 118.725 289.247 118.942C289.665 119.151 289.991 119.415 290.226 119.732V118.729H291.668V125.753C291.668 126.389 291.534 126.953 291.267 127.447C290.999 127.949 290.61 128.342 290.1 128.626C289.598 128.91 288.996 129.052 288.294 129.052C287.357 129.052 286.579 128.831 285.961 128.388C285.342 127.953 284.991 127.359 284.907 126.606H286.324C286.433 126.966 286.663 127.254 287.014 127.472C287.374 127.698 287.8 127.811 288.294 127.811C288.871 127.811 289.335 127.635 289.686 127.284C290.046 126.932 290.226 126.422 290.226 125.753V124.599C289.983 124.925 289.653 125.201 289.235 125.427C288.825 125.645 288.357 125.753 287.83 125.753C287.228 125.753 286.676 125.603 286.174 125.302C285.681 124.992 285.287 124.566 284.995 124.022C284.71 123.47 284.568 122.847 284.568 122.153C284.568 121.459 284.71 120.845 284.995 120.309C285.287 119.774 285.681 119.36 286.174 119.067C286.676 118.766 287.228 118.616 287.83 118.616ZM290.226 122.178C290.226 121.702 290.125 121.288 289.925 120.936C289.732 120.585 289.477 120.318 289.159 120.134C288.842 119.95 288.499 119.858 288.131 119.858C287.763 119.858 287.42 119.95 287.102 120.134C286.784 120.309 286.525 120.573 286.324 120.924C286.132 121.267 286.036 121.677 286.036 122.153C286.036 122.63 286.132 123.048 286.324 123.408C286.525 123.767 286.784 124.043 287.102 124.236C287.428 124.42 287.771 124.511 288.131 124.511C288.499 124.511 288.842 124.42 289.159 124.236C289.477 124.052 289.732 123.784 289.925 123.433C290.125 123.073 290.226 122.655 290.226 122.178Z" fill="black"/>
<defs>
<filter id="filter0_d" x="39.4515" y="0.737305" width="58.9806" height="98.3876" filterUnits="userSpaceOnUse" color-interpolation-filters="sRGB">
<feFlood flood-opacity="0" result="BackgroundImageFix"/>
<feColorMatrix in="SourceAlpha" type="matrix" values="0 0 0 0 0 0 0 0 0 0 0 0 0 0 0 0 0 0 127 0"/>
<feOffset dx="3.78804" dy="2.52536"/>
<feGaussianBlur stdDeviation="1.26268"/>
<feColorMatrix type="matrix" values="0 0 0 0 0 0 0 0 0 0 0 0 0 0 0 0 0 0 0.25 0"/>
<feBlend mode="normal" in2="BackgroundImageFix" result="effect1_dropShadow"/>
<feBlend mode="normal" in="SourceGraphic" in2="effect1_dropShadow" result="shape"/>
</filter>
<filter id="filter1_d" x="0.939861" y="35.3126" width="132.887" height="112.232" filterUnits="userSpaceOnUse" color-interpolation-filters="sRGB">
<feFlood flood-opacity="0" result="BackgroundImageFix"/>
<feColorMatrix in="SourceAlpha" type="matrix" values="0 0 0 0 0 0 0 0 0 0 0 0 0 0 0 0 0 0 127 0"/>
<feOffset dy="2.22945"/>
<feGaussianBlur stdDeviation="1.11473"/>
<feColorMatrix type="matrix" values="0 0 0 0 0 0 0 0 0 0 0 0 0 0 0 0 0 0 0.25 0"/>
<feBlend mode="normal" in2="BackgroundImageFix" result="effect1_dropShadow"/>
<feBlend mode="normal" in="SourceGraphic" in2="effect1_dropShadow" result="shape"/>
</filter>
</defs>
</svg>
