<svg width="120" height="36" viewBox="0 0 149 60" fill="none" xmlns="http://www.w3.org/2000/svg">
<g filter="url(#filter0_d_672_12)">
<path d="M54.2066 47.7533C54.0788 48.0301 53.9138 48.2909 53.7115 48.5357C53.5199 48.7806 53.3017 48.9988 53.0569 49.1904C52.812 49.3821 52.5406 49.5311 52.2425 49.6376C51.9551 49.7546 51.657 49.8132 51.3483 49.8132C50.5179 49.8132 49.9111 49.5843 49.5279 49.1266C49.1553 48.6582 48.969 48.0248 48.969 47.2264V27.7452L51.9071 26.7233V47.3062C51.9071 47.5191 51.9551 47.7161 52.0509 47.897C52.1467 48.0673 52.317 48.1525 52.5618 48.1525C52.8067 48.1525 53.0356 48.0567 53.2485 47.8651C53.472 47.6628 53.6477 47.4659 53.7754 47.2743L54.2066 47.7533ZM68.7056 47.7214C68.5779 47.9982 68.4182 48.259 68.2266 48.5038C68.035 48.7487 67.8114 48.9669 67.5559 49.1585C67.3111 49.3501 67.0396 49.5045 66.7416 49.6216C66.4541 49.728 66.1507 49.7813 65.8314 49.7813C64.9904 49.7813 64.3836 49.5524 64.011 49.0946C63.6491 48.6262 63.4681 47.9928 63.4681 47.1944V46.907C63.2765 47.2689 63.0582 47.6309 62.8134 47.9928C62.5792 48.3548 62.3077 48.6795 61.999 48.9669C61.7009 49.2543 61.3656 49.4885 60.993 49.6695C60.6204 49.8505 60.2053 49.9409 59.7475 49.9409C59.0556 49.9409 58.4434 49.8079 57.9112 49.5417C57.3789 49.2756 56.9318 48.919 56.5698 48.4719C56.2079 48.0141 55.9364 47.4819 55.7555 46.8751C55.5745 46.2683 55.484 45.6242 55.484 44.9429C55.484 44.0168 55.6437 43.0959 55.9631 42.1804C56.2931 41.2543 56.7508 40.4293 57.3363 39.7054C57.9325 38.9815 58.6404 38.396 59.4601 37.9489C60.2904 37.4911 61.2113 37.2622 62.2226 37.2622C62.6271 37.2622 63.0316 37.2995 63.4361 37.374C63.8407 37.4485 64.2239 37.571 64.5859 37.7413C64.9584 37.901 65.2938 38.1139 65.5918 38.38C65.9006 38.6461 66.1507 38.9708 66.3424 39.3541L63.9631 40.3601C63.8354 40.1578 63.6863 39.9662 63.516 39.7852C63.3563 39.5936 63.1753 39.4286 62.9731 39.2902C62.7815 39.1518 62.5739 39.04 62.3503 38.9549C62.1268 38.8697 61.8926 38.8271 61.6477 38.8271C61.0942 38.8271 60.5991 38.9974 60.1627 39.3381C59.7369 39.6788 59.3696 40.0992 59.0609 40.5996C58.7628 41.0999 58.5339 41.6322 58.3742 42.1964C58.2146 42.7606 58.1347 43.2716 58.1347 43.7293C58.1347 44.1339 58.172 44.5916 58.2465 45.1026C58.3317 45.6029 58.4754 46.0767 58.6776 46.5238C58.8799 46.9709 59.146 47.3488 59.476 47.6575C59.8061 47.9662 60.2212 48.1206 60.7216 48.1206C61.1154 48.1206 61.4561 48.0354 61.7435 47.8651C62.031 47.6841 62.2758 47.4552 62.4781 47.1785C62.6803 46.891 62.8453 46.5663 62.9731 46.2044C63.1115 45.8318 63.2126 45.4539 63.2765 45.0707C63.351 44.6874 63.3989 44.3095 63.4202 43.9369C63.4521 43.5537 63.4681 43.213 63.4681 42.915V41.8132L66.3743 40.7912V47.2743C66.3743 47.4872 66.4275 47.6841 66.534 47.8651C66.6404 48.0354 66.8054 48.1206 67.029 48.1206C67.2951 48.1206 67.5346 48.0248 67.7475 47.8331C67.9711 47.6309 68.1468 47.4286 68.2745 47.2264L68.7056 47.7214ZM81.0171 48.3122C81.0171 49.0787 80.9213 49.8238 80.7296 50.5477C80.538 51.2823 80.2719 51.9689 79.9312 52.6076C79.6012 53.257 79.2074 53.8478 78.7496 54.3801C78.2918 54.923 77.7915 55.3861 77.2486 55.7693C76.7163 56.1632 76.1521 56.4666 75.556 56.6795C74.9598 56.9031 74.3584 57.0148 73.7516 57.0148C73.2938 57.0148 72.8627 56.935 72.4581 56.7753C72.0536 56.6263 71.6704 56.424 71.3084 56.1685L73.0969 53.901C73.2566 54.0288 73.4322 54.1619 73.6238 54.3002C73.8261 54.4386 74.0337 54.5611 74.2466 54.6675C74.4595 54.7846 74.6777 54.8751 74.9013 54.939C75.1355 55.0135 75.3644 55.0508 75.5879 55.0508C75.9924 55.0508 76.3331 54.9283 76.6099 54.6835C76.8973 54.4386 77.1315 54.1246 77.3125 53.7414C77.4934 53.3581 77.6372 52.9217 77.7436 52.432C77.8501 51.9529 77.9246 51.4739 77.9672 50.9948C78.0204 50.5158 78.0523 50.058 78.063 49.6216C78.0736 49.1958 78.0789 48.8445 78.0789 48.5677V42.1325C77.9938 42.5051 77.882 42.9575 77.7436 43.4898C77.6052 44.0114 77.4296 44.565 77.2167 45.1505C77.0144 45.7254 76.7802 46.3002 76.5141 46.8751C76.2479 47.4393 75.9445 47.9502 75.6039 48.408C75.2739 48.8658 74.9013 49.2383 74.4861 49.5258C74.0816 49.8026 73.6398 49.9409 73.1607 49.9409C72.6711 49.9409 72.2985 49.8345 72.043 49.6216C71.7981 49.398 71.6172 49.1212 71.5001 48.7912C71.3936 48.4506 71.3351 48.078 71.3244 47.6735C71.3138 47.2689 71.3084 46.8804 71.3084 46.5078V39.6096C71.3084 39.4179 71.2552 39.2316 71.1488 39.0507C71.0423 38.8591 70.8773 38.7632 70.6537 38.7632C70.3876 38.7632 70.1428 38.8644 69.9192 39.0666C69.7063 39.2583 69.536 39.4499 69.4082 39.6415L68.9771 39.1624C69.1048 38.8963 69.2645 38.6408 69.4561 38.396C69.6584 38.1405 69.882 37.9169 70.1268 37.7253C70.3823 37.5337 70.6537 37.3847 70.9412 37.2782C71.2392 37.1611 71.548 37.1026 71.8673 37.1026C72.6977 37.1026 73.2938 37.3368 73.6558 37.8052C74.0284 38.2629 74.2146 38.8857 74.2146 39.6734V46.2523C74.2146 46.3162 74.2146 46.4013 74.2146 46.5078C74.2253 46.6036 74.2466 46.6994 74.2785 46.7952C74.3105 46.8804 74.3584 46.9602 74.4222 47.0347C74.4861 47.0986 74.5713 47.1306 74.6777 47.1306C74.88 47.1306 75.0876 47.0135 75.3005 46.7793C75.5134 46.5451 75.7157 46.2736 75.9073 45.9649C76.0989 45.6562 76.2639 45.3474 76.4023 45.0387C76.5407 44.73 76.6418 44.5011 76.7057 44.3521C76.8973 43.8943 77.0676 43.394 77.2167 42.8511C77.3657 42.3082 77.4934 41.7546 77.5999 41.1904C77.717 40.6155 77.8128 40.0513 77.8873 39.4978C77.9725 38.9336 78.0364 38.396 78.0789 37.885L81.0171 36.863V48.3122ZM87.8674 28.7832L87.0211 34.6115L85.4562 35.1065L84.4981 29.9329L87.8674 28.7832ZM90.071 47.7533C89.8262 48.2749 89.5387 48.6741 89.2087 48.9509C88.8894 49.2277 88.5807 49.43 88.2826 49.5577C87.9313 49.7067 87.5747 49.7919 87.2127 49.8132C86.7443 49.8132 86.3558 49.7387 86.047 49.5896C85.7383 49.4406 85.4935 49.2437 85.3125 48.9988C85.1315 48.754 85.0038 48.4772 84.9293 48.1685C84.8654 47.8598 84.8335 47.5457 84.8335 47.2264V38.2682L87.7716 37.2622V47.3062C87.7716 47.5617 87.8301 47.764 87.9472 47.913C88.0643 48.062 88.2134 48.1419 88.3944 48.1525C88.586 48.1525 88.7882 48.0833 89.0011 47.9449C89.2247 47.8065 89.4376 47.583 89.6399 47.2743L90.071 47.7533ZM105.257 47.7533C105.129 48.0301 104.964 48.2909 104.762 48.5357C104.559 48.7806 104.331 48.9988 104.075 49.1904C103.83 49.3821 103.564 49.5311 103.277 49.6376C102.989 49.7546 102.691 49.8132 102.382 49.8132C101.541 49.8132 100.929 49.5843 100.546 49.1266C100.174 48.6582 99.9872 48.0248 99.9872 47.2264V40.7273C99.9872 40.6528 99.9819 40.5676 99.9713 40.4718C99.9713 40.3654 99.9553 40.2696 99.9234 40.1844C99.8914 40.0886 99.8488 40.0088 99.7956 39.9449C99.7424 39.881 99.6679 39.8491 99.5721 39.8491C99.274 39.8491 98.9706 40.0301 98.6619 40.392C98.3638 40.7539 98.0711 41.2223 97.7836 41.7972C97.5068 42.372 97.246 43.0161 97.0012 43.7293C96.767 44.4426 96.5594 45.1505 96.3784 45.8531C96.1975 46.5451 96.0537 47.1944 95.9473 47.8012C95.8515 48.408 95.8036 48.8924 95.8036 49.2543L92.8974 50.2763V39.5457C92.8974 39.3328 92.8441 39.1412 92.7377 38.9708C92.6312 38.7899 92.4662 38.6994 92.2427 38.6994C91.9765 38.6994 91.7317 38.8005 91.5081 39.0028C91.2952 39.1944 91.1249 39.386 90.9972 39.5776L90.566 39.0986C90.6938 38.8324 90.8535 38.5769 91.0451 38.3321C91.2473 38.0766 91.4709 37.8531 91.7157 37.6614C91.9712 37.4698 92.2427 37.3208 92.5301 37.2143C92.8282 37.0972 93.1369 37.0387 93.4563 37.0387C94.2866 37.0387 94.8827 37.2729 95.2447 37.7413C95.6173 38.199 95.8036 38.8218 95.8036 39.6096V44.8152C95.8994 44.3787 96.0271 43.8837 96.1868 43.3301C96.3571 42.7659 96.5594 42.1964 96.7936 41.6215C97.0278 41.0467 97.2886 40.4878 97.576 39.9449C97.8741 39.3913 98.1988 38.9016 98.5501 38.4758C98.9014 38.0394 99.2846 37.6934 99.6998 37.4379C100.115 37.1718 100.562 37.0387 101.041 37.0387C101.541 37.0387 101.919 37.1505 102.175 37.374C102.43 37.5869 102.611 37.8637 102.718 38.2044C102.835 38.5344 102.899 38.9016 102.909 39.3062C102.92 39.7107 102.925 40.0992 102.925 40.4718V47.3062C102.925 47.5191 102.979 47.7161 103.085 47.897C103.192 48.0673 103.357 48.1525 103.58 48.1525C103.825 48.1525 104.054 48.0567 104.267 47.8651C104.49 47.6628 104.666 47.4659 104.794 47.2743L105.257 47.7533ZM118.957 47.8491C118.798 48.1259 118.601 48.392 118.367 48.6475C118.132 48.8924 117.872 49.1053 117.584 49.2863C117.307 49.4672 117.009 49.6109 116.69 49.7174C116.371 49.8238 116.046 49.8771 115.716 49.8771C115.301 49.8771 114.87 49.7227 114.422 49.414C113.975 49.1053 113.539 48.738 113.113 48.3122C112.687 47.8757 112.283 47.4339 111.899 46.9868C111.516 46.5291 111.176 46.1512 110.878 45.8531L110.622 45.9968C110.569 46.1884 110.521 46.428 110.478 46.7154C110.436 47.0028 110.398 47.3009 110.367 47.6096C110.335 47.9183 110.308 48.2217 110.287 48.5198C110.276 48.8072 110.265 49.0521 110.255 49.2543L107.317 50.2763V27.7452L110.255 26.7233V44.4479C110.372 44.054 110.516 43.6016 110.686 43.0906C110.856 42.569 111.053 42.0367 111.277 41.4938C111.511 40.9402 111.777 40.3973 112.075 39.865C112.373 39.3328 112.703 38.8591 113.065 38.4439C113.427 38.0181 113.826 37.6774 114.263 37.4219C114.699 37.1664 115.173 37.0387 115.684 37.0387C115.993 37.0387 116.269 37.0972 116.514 37.2143C116.77 37.3208 116.983 37.4698 117.153 37.6614C117.334 37.8531 117.472 38.0766 117.568 38.3321C117.664 38.5876 117.712 38.8644 117.712 39.1624C117.712 39.7692 117.563 40.3494 117.265 40.903C116.967 41.4565 116.589 41.9728 116.131 42.4519C115.684 42.9309 115.194 43.3621 114.662 43.7453C114.14 44.1285 113.651 44.4532 113.193 44.7194C113.342 44.8471 113.512 45.0228 113.704 45.2463C113.895 45.4592 114.092 45.6881 114.295 45.9329C114.508 46.1778 114.726 46.428 114.949 46.6834C115.184 46.9389 115.412 47.1678 115.636 47.3701C115.86 47.5723 116.083 47.7373 116.307 47.8651C116.541 47.9928 116.759 48.0567 116.961 48.0567C117.27 48.0567 117.552 47.9875 117.808 47.8491C118.063 47.7107 118.281 47.5298 118.462 47.3062L118.957 47.8491ZM114.678 40.3281C114.678 40.1471 114.598 39.9768 114.438 39.8171C114.279 39.6575 114.114 39.5776 113.943 39.5776C113.73 39.5776 113.512 39.6841 113.289 39.897C113.076 40.1099 112.868 40.3813 112.666 40.7114C112.464 41.0414 112.267 41.4086 112.075 41.8132C111.894 42.2177 111.729 42.6116 111.58 42.9948C111.431 43.378 111.298 43.7347 111.181 44.0647C111.074 44.384 110.995 44.6236 110.941 44.7832C111.09 44.6768 111.282 44.5171 111.516 44.3042C111.761 44.0913 112.022 43.8518 112.299 43.5856C112.575 43.3088 112.852 43.0214 113.129 42.7233C113.416 42.4146 113.672 42.1166 113.895 41.8291C114.13 41.5311 114.316 41.2543 114.454 40.9988C114.603 40.7326 114.678 40.5091 114.678 40.3281ZM133.377 47.7214C133.249 47.9982 133.089 48.259 132.898 48.5038C132.706 48.7487 132.482 48.9669 132.227 49.1585C131.982 49.3501 131.711 49.5045 131.413 49.6216C131.125 49.728 130.822 49.7813 130.502 49.7813C129.661 49.7813 129.055 49.5524 128.682 49.0946C128.32 48.6262 128.139 47.9928 128.139 47.1944V46.907C127.947 47.2689 127.729 47.6309 127.484 47.9928C127.25 48.3548 126.979 48.6795 126.67 48.9669C126.372 49.2543 126.037 49.4885 125.664 49.6695C125.291 49.8505 124.876 49.9409 124.418 49.9409C123.727 49.9409 123.114 49.8079 122.582 49.5417C122.05 49.2756 121.603 48.919 121.241 48.4719C120.879 48.0141 120.607 47.4819 120.426 46.8751C120.245 46.2683 120.155 45.6242 120.155 44.9429C120.155 44.0168 120.315 43.0959 120.634 42.1804C120.964 41.2543 121.422 40.4293 122.007 39.7054C122.603 38.9815 123.311 38.396 124.131 37.9489C124.961 37.4911 125.882 37.2622 126.894 37.2622C127.298 37.2622 127.703 37.2995 128.107 37.374C128.512 37.4485 128.895 37.571 129.257 37.7413C129.629 37.901 129.965 38.1139 130.263 38.38C130.572 38.6461 130.822 38.9708 131.013 39.3541L128.634 40.3601C128.506 40.1578 128.357 39.9662 128.187 39.7852C128.027 39.5936 127.846 39.4286 127.644 39.2902C127.452 39.1518 127.245 39.04 127.021 38.9549C126.798 38.8697 126.564 38.8271 126.319 38.8271C125.765 38.8271 125.27 38.9974 124.834 39.3381C124.408 39.6788 124.041 40.0992 123.732 40.5996C123.434 41.0999 123.205 41.6322 123.045 42.1964C122.886 42.7606 122.806 43.2716 122.806 43.7293C122.806 44.1339 122.843 44.5916 122.917 45.1026C123.003 45.6029 123.146 46.0767 123.349 46.5238C123.551 46.9709 123.817 47.3488 124.147 47.6575C124.477 47.9662 124.892 48.1206 125.393 48.1206C125.786 48.1206 126.127 48.0354 126.415 47.8651C126.702 47.6841 126.947 47.4552 127.149 47.1785C127.351 46.891 127.516 46.5663 127.644 46.2044C127.782 45.8318 127.884 45.4539 127.947 45.0707C128.022 44.6874 128.07 44.3095 128.091 43.9369C128.123 43.5537 128.139 43.213 128.139 42.915V41.8132L131.045 40.7912V47.2743C131.045 47.4872 131.098 47.6841 131.205 47.8651C131.311 48.0354 131.476 48.1206 131.7 48.1206C131.966 48.1206 132.206 48.0248 132.419 47.8331C132.642 47.6309 132.818 47.4286 132.945 47.2264L133.377 47.7214ZM138.822 48.408C138.822 48.6635 138.769 48.903 138.662 49.1266C138.566 49.3501 138.433 49.5417 138.263 49.7014C138.103 49.8717 137.906 50.0048 137.672 50.1006C137.448 50.1964 137.209 50.2443 136.953 50.2443C136.698 50.2443 136.458 50.1964 136.235 50.1006C136.022 50.0048 135.83 49.8717 135.66 49.7014C135.49 49.5417 135.357 49.3501 135.261 49.1266C135.165 48.903 135.117 48.6635 135.117 48.408C135.117 48.1525 135.165 47.913 135.261 47.6894C135.357 47.4659 135.49 47.2689 135.66 47.0986C135.83 46.9283 136.022 46.7952 136.235 46.6994C136.458 46.593 136.698 46.5397 136.953 46.5397C137.209 46.5397 137.448 46.593 137.672 46.6994C137.906 46.7952 138.103 46.9283 138.263 47.0986C138.433 47.2689 138.566 47.4659 138.662 47.6894C138.769 47.913 138.822 48.1525 138.822 48.408Z" fill="white"/>
</g>
<ellipse cx="21.9067" cy="29.4295" rx="21.9067" ry="25.5706" fill="white"/>
<ellipse cx="30.2209" cy="23.9503" rx="3.51852" ry="4.33014" fill="black"/>
<ellipse cx="12.4443" cy="21.6863" rx="3.37025" ry="2.06622" fill="black"/>
<path d="M10.1112 35.7021C18.9921 56.3202 26.652 47.0276 33.4438 35.7021" stroke="black" stroke-width="1.48649"/>
<path d="M6.48167 19.3319C11.7963 10.6475 13.7495 19.4367 18.4064 19.5039" stroke="black" stroke-width="1.48649"/>
<path d="M47.9473 6.95645C49.0513 9.11056 48.2834 11.997 46.0894 12.0566C44.3415 12.1041 42.6764 11.906 41.332 13.2929C39.7923 14.8813 37.1624 15.8855 36.1792 13.967C35.7108 13.0531 35.8236 11.831 36.4573 10.955L40.0546 5.98211C42.206 3.00809 45.9905 3.13856 47.5809 6.24156L47.9473 6.95645Z" fill="white"/>
<defs>
<filter id="filter0_d_672_12" x="47.7798" y="26.7233" width="92.2311" height="32.67" filterUnits="userSpaceOnUse" color-interpolation-filters="sRGB">
<feFlood flood-opacity="0" result="BackgroundImageFix"/>
<feColorMatrix in="SourceAlpha" type="matrix" values="0 0 0 0 0 0 0 0 0 0 0 0 0 0 0 0 0 0 127 0" result="hardAlpha"/>
<feOffset dy="1.18919"/>
<feGaussianBlur stdDeviation="0.594596"/>
<feColorMatrix type="matrix" values="0 0 0 0 0 0 0 0 0 0 0 0 0 0 0 0 0 0 0.25 0"/>
<feBlend mode="normal" in2="BackgroundImageFix" result="effect1_dropShadow_672_12"/>
<feBlend mode="normal" in="SourceGraphic" in2="effect1_dropShadow_672_12" result="shape"/>
</filter>
</defs>
</svg>
