<svg width="609" height="831" viewBox="0 0 609 831" fill="none" xmlns="http://www.w3.org/2000/svg">
<g filter="url(#filter0_d_168_154)">
<path d="M230.514 251.499C234.476 244.321 244.727 229.966 254.04 229.966L408.776 257.063V273.758L416.537 288.516L437.152 305.21L487.842 325.775L570.303 360.857C579.923 390.455 598.291 454.102 594.798 471.909L590.918 486.667L599.164 496.345L590.918 502.152V509.894V528.524V540.621L599.164 549.089L603.772 576.67C600.386 615.657 579.198 713.496 552.325 746.667C546.549 753.796 541.659 763.207 543.622 772.17L554.538 822H40.8544C40.9352 810.226 43.2797 782.661 52.0109 766.596L66.5628 723.53L59.7719 720.868C47.9687 715.142 23.489 697.787 19.9962 674.173C17.1666 652.56 11.5076 601.784 11.5076 571.589C11.1842 559.654 11.3135 530.604 14.4179 509.894L19.9962 443.118V427.149L25.0894 420.133L30.9101 374.164C32.7696 351.26 43.3763 304.146 70.928 298.92C104.963 291.258 178.321 274.532 199.47 268.919L205.048 264.08C209.495 263.999 220.813 261.37 230.514 251.499Z" fill="#D5D9E4" stroke="black" stroke-width="0.485065"/>
<path d="M434.485 751.353L390.102 745.788L385.009 726.19H427.694H514.036H558.905L549.688 742.885H537.562L523.252 745.788L507.003 751.353H434.485Z" fill="#81523F" stroke="#036DCD" stroke-width="0.485065"/>
<path d="M148.054 394.245C145.871 370.454 130.398 317.355 85.966 295.29C68.5845 300.855 33.8216 318.565 33.8216 344.888V372.47L24.6054 401.019V416.987L19.5122 421.826L24.6054 432.956L19.5122 460.537L10.2959 555.379C7.78972 600.622 10.6839 695.657 42.3102 713.852L70.6865 725.465H103.671L126.226 732.965L164.061 650.946L174.975 547.637C176.107 519.733 172.308 449.988 148.054 394.245Z" fill="#3A3EA1" stroke="#036DCD" stroke-width="0.485065"/>
<g filter="url(#filter1_d_168_154)">
<path d="M258.164 244.239L252.828 251.498L260.832 268.676L277.324 296.741L296.241 331.581L316.129 398.599L334.076 349.484C333.511 345.775 330.875 337 324.86 331.581L304.973 308.838L291.148 289.966C281.204 281.418 260.686 260.304 258.164 244.239Z" fill="#C4C4C4"/>
<path d="M258.164 244.239L252.828 251.498L260.832 268.676L277.324 296.741L296.241 331.581L316.129 398.599L334.076 349.484C333.511 345.775 330.875 337 324.86 331.581L304.973 308.838L291.148 289.966C281.204 281.418 260.686 260.304 258.164 244.239Z" stroke="#036DCD" stroke-width="0.485065"/>
</g>
<g filter="url(#filter2_d_168_154)">
<path d="M373.852 314.888C382.745 310.453 401.646 295.823 406.109 272.79L409.262 292.629C409.262 298.839 407.806 314.453 401.986 327.227C397.539 331.098 386.609 344.405 378.46 366.664C369.001 386.907 350.084 435.279 350.084 466.828L341.353 525.379L337.23 475.054C334.966 454.893 327.674 410.94 316.614 396.423L333.106 351.905L341.353 332.308L373.852 314.888Z" fill="#D2D2D2"/>
<path d="M373.852 314.888C382.745 310.453 401.646 295.823 406.109 272.79L409.262 292.629C409.262 298.839 407.806 314.453 401.986 327.227C397.539 331.098 386.609 344.405 378.46 366.664C369.001 386.907 350.084 435.279 350.084 466.828L341.353 525.379L337.23 475.054C334.966 454.893 327.674 410.94 316.614 396.423L333.106 351.905L341.353 332.308L373.852 314.888Z" stroke="#036DCD" stroke-width="0.485065"/>
</g>
<g filter="url(#filter3_d_168_154)">
<path d="M377.248 367.631C391.881 347.631 418.382 301.581 407.322 277.387L430.848 297.952L457.284 338.84L437.154 347.792L466.985 363.035C454.293 394.729 425.706 461.941 412.901 477.232C401.016 494.006 377.248 536.459 377.248 572.073L368.517 600.865L333.107 593.848V577.88L342.809 517.152C349.195 474.732 365.025 385.438 377.248 367.631Z" fill="#151D3D"/>
<path d="M377.248 367.631C391.881 347.631 418.382 301.581 407.322 277.387L430.848 297.952L457.284 338.84L437.154 347.792L466.985 363.035C454.293 394.729 425.706 461.941 412.901 477.232C401.016 494.006 377.248 536.459 377.248 572.073L368.517 600.865L333.107 593.848V577.88L342.809 517.152C349.195 474.732 365.025 385.438 377.248 367.631Z" stroke="#036DCD" stroke-width="0.485065"/>
</g>
<path d="M220.087 257.548C226.473 254.564 241.041 245.112 248.22 231.176C246.361 236.095 245.553 249.176 257.194 262.144L273.686 289.726L295.999 331.098L308.368 373.196L329.226 442.392C333.026 459.973 340.625 501.862 340.625 528.766L333.349 580.058H314.674L300.607 528.766C297.212 518.282 288.287 494.652 279.75 484.006C269.24 454.973 244.534 392.165 229.788 373.196C224.695 359.406 210.579 326.647 194.863 305.936L220.087 296.984L194.863 294.081L206.505 266.499L220.087 257.548Z" fill="#151D3D" stroke="#036DCD" stroke-width="0.485065"/>
<path d="M263.987 257.304C260.915 251.256 254.771 237.465 254.771 230.69L263.987 235.771L268.352 250.772L269.08 265.53C267.786 263.917 264.957 260.014 263.987 257.304Z" fill="#3E3B3B"/>
<path d="M421.39 243.998C424.3 236.256 430.121 218.594 430.121 209.884L386.95 263.595L361.727 291.177C364.152 290.29 370.458 287.741 376.279 284.644L386.95 277.87C391.558 275.047 401.841 268.24 406.11 263.595C409.991 259.643 418.479 250.192 421.39 243.998Z" fill="#3E3B3B"/>
<path d="M265.199 218.11L255.497 195.851H253.072L251.859 198.996V201.9L253.072 207.222L251.859 210.61L253.072 215.207V219.078L254.042 222.949V228.029L255.497 231.901L257.923 235.53V240.852L260.591 242.546V247.385V248.837L262.046 253.675L265.199 257.305L266.896 260.934L268.594 265.773L271.019 271.579L273.687 274.483L275.385 277.386L279.993 280.289L282.176 283.434L285.086 285.854L288.724 287.789L293.332 289.967H298.183L301.093 291.177L304.246 293.112H307.884H311.765H315.16H318.556L320.496 295.29H323.891H326.074L328.015 296.741H331.167H334.563H337.231H339.899H343.537H346.932L349.357 295.29H353.723L356.876 293.112H359.059L361.484 291.177L364.637 289.967C365.041 289.402 365.85 287.935 365.85 286.58C365.85 285.225 368.922 286.015 370.458 286.58L373.368 285.128H376.278L379.189 281.983L381.372 280.289L384.282 279.563L387.678 277.386L389.618 274.483L390.345 272.547L392.771 273.273L394.711 271.579H397.136V268.434H400.047L400.774 265.773H403.442V264.321L406.352 263.353V259.24L409.02 260.934L411.931 257.305V253.675L416.539 252.466V248.837L418.479 247.385V243.756L421.632 242.546L424.3 237.707C424.623 237.304 425.27 236.304 425.27 235.53V229.965L428.423 224.884L426.968 220.045L428.423 218.11V210.61C428.423 209.448 430.525 210.126 431.576 210.61V204.077V200.206V195.851V188.593L428.423 190.044V192.948L426.968 195.851V198.996L425.27 200.932L424.3 204.077L421.632 204.561L420.177 208.674L418.237 213.755H413.628L410.718 215.207H406.352C404.606 215.207 405.625 217.142 406.352 218.11H402.472L400.047 220.045L394.711 221.739L392.771 224.884C391.477 224.884 388.648 224.497 387.678 222.949C386.707 221.4 386.465 224.723 386.465 226.578L382.827 224.884L379.916 226.578H376.278L373.368 228.029L369.003 226.578L367.062 221.739L363.182 218.11L361.484 215.207H356.876L354.693 212.061L349.357 210.61L346.932 207.222L342.081 204.561V201.9H337.958C336.503 201.335 333.35 200.206 332.38 200.206C331.41 200.206 329.712 199.4 328.985 198.996L326.074 197.545L322.679 195.851L318.556 197.545L314.918 198.996L312.735 197.545H308.369L306.429 195.851L302.549 197.545L301.336 195.851L298.183 198.996H295.03H291.877L288.724 204.077L287.269 201.9L284.116 204.077H282.176L279.993 208.674L277.325 207.222L275.385 210.61L272.232 215.207V219.803L271.019 220.045V224.884V229.965L268.594 224.884L265.199 218.11Z" fill="#3E3B3B"/>
<path d="M273.319 236.382C277.2 223.293 275.28 233.329 280.477 223.676C285.489 229.16 298.23 240.128 309.095 240.128C318.231 241.176 339.46 241.434 351.296 234.079L359.3 232.628V234.079L357.844 240.128V243.999L356.389 246.902L353.721 249.322L351.296 251.499V253.193L349.113 256.096L345.475 257.79L341.837 258.999H337.472L333.106 261.177L330.438 262.629L326.8 266.5H321.222L319.282 268.193L312.491 266.5H309.095H305.457H300.849L297.454 264.08L295.514 262.629L293.816 257.79L289.693 256.096V253.193L286.782 250.29L283.872 249.322L281.932 246.902L278.779 245.935V243.999L276.111 240.128C274.167 240.128 272.767 238.246 273.319 236.382Z" fill="#E5E5E5"/>
<path d="M303.032 210.368C299.314 212.546 290.372 217.578 284.357 220.288C290.178 220.933 303.372 222.224 309.581 222.224C315.725 222.708 329.759 224.111 336.744 225.853L342.808 228.272L355.662 231.176L353.722 229.24L347.173 223.675C340.948 219.24 327.043 210.368 321.222 210.368L319.04 211.82C318.231 212.385 316.032 213.175 313.704 211.82L312.491 210.368C311.359 209.965 307.883 209.401 303.032 210.368Z" fill="#E6C1C9"/>
<path d="M312.006 241.337C305.457 240.773 290.42 236.547 282.659 224.159V221.256L304.73 224.159C309.823 224.159 321.513 224.546 327.528 226.095C333.542 227.643 331.327 226.74 329.468 226.095C334.884 226.982 348.337 229.482 358.814 232.385C351.377 236.256 331.602 243.466 312.006 241.337Z" fill="#E6C1C9" stroke="black" stroke-width="0.485065"/>
<g filter="url(#filter4_d_168_154)">
<path d="M316.614 136.575C304.584 156.124 284.923 156.173 276.596 153.753" stroke="#5B392B" stroke-width="1.45519"/>
</g>
<g filter="url(#filter5_d_168_154)">
<path d="M347.658 139.962C347.27 159.704 367.545 172.382 377.732 176.253" stroke="#5B392B" stroke-width="1.45519"/>
</g>
<path opacity="0.8" d="M367.789 129.076C366.334 129.479 362.454 131.35 358.573 135.608L356.148 137.786C355.824 139.641 356.633 144.415 362.454 148.673C368.598 150.044 382.535 152.786 389.132 152.786C395.681 152.383 409.99 150.996 414.841 148.673C411.203 144.641 400.192 135.318 385.252 130.286C381.29 129.237 372.252 127.527 367.789 129.076Z" fill="#97746A"/>
<path opacity="0.9" d="M369.972 133.915C368.355 133.593 363.763 134.399 358.33 140.206C362.453 142.222 371.912 146.254 376.763 146.254C382.988 146.819 396.408 147.222 400.288 144.319C396.893 141.819 388.647 136.528 382.826 135.367C381.29 134.641 376.569 133.334 369.972 133.915Z" fill="#573426"/>
<path d="M371.183 135.366C369.647 135.608 365.46 136.915 360.997 140.205C363.665 141.415 369.971 143.835 373.851 143.835C381.046 144.722 395.825 145.867 397.377 143.351L386.706 138.028C384.038 136.979 377.198 134.979 371.183 135.366Z" fill="#DADADA"/>
<path opacity="0.15" d="M298.181 101.01C291.714 101.574 275.238 103.961 268.835 108.994C271.503 105.607 277.76 98.8323 281.447 98.8323C312.976 95.1225 382.534 95.4935 408.534 126.656C392.931 119.075 359.203 107.107 349.113 119.881C344.99 125.769 338.005 141.753 343.05 158.592C348.062 163.431 358.087 175.044 358.087 182.787C358.41 186.658 357.068 194.4 349.113 194.4C342.888 194.238 328.983 193.384 323.162 191.255H316.371H306.427L298.181 189.561C295.985 186.623 293.061 181.372 292.699 176.554C292.282 171.007 299.292 169.814 304.23 167.254C306.522 166.065 308.798 164.111 310.551 161.012C314.835 155.286 324.132 141.559 327.043 132.462C327.851 127.059 328.643 114.801 325.345 108.994C320.252 106.333 307.689 101.01 298.181 101.01Z" fill="#A88683"/>
<g filter="url(#filter6_d_168_154)">
<path d="M297.454 185.206C299.233 186.577 304.633 189.319 312.006 189.319L314.917 187.626V185.206L313.219 181.093C312.815 179.158 310.551 174.996 304.73 173.835C302.305 174.077 297.163 175.577 295.999 179.642L297.454 185.206Z" fill="#402E28"/>
</g>
<path d="M304.245 168.271C308.53 164.319 318.215 154.044 322.678 144.56C325.507 139.641 330.632 128.06 328.498 121.092C333.995 120.447 345.184 120.027 345.96 123.511L340.14 137.786C338.199 145.528 335.677 162.222 341.11 167.061C344.748 170.529 351.83 178.626 351.054 183.271C352.266 186.578 352.363 192.997 343.05 192.223L345.96 190.529C346.688 189.158 347.707 185.787 345.96 183.271C345.96 183.271 333.834 175.916 329.953 177.464C327.124 178.271 321.95 181.481 323.89 187.868C322.273 188.191 318.409 188.352 315.886 186.416C315.159 181.013 311.812 170.69 304.245 172.626C301.577 173.19 295.853 175.432 294.301 179.884C294.059 178.11 294.447 173.835 297.939 170.932C299.233 170.448 302.305 169.238 304.245 168.271Z" fill="#B79591"/>
<g filter="url(#filter7_d_168_154)">
<path d="M324.375 183.755C325.022 185.126 327.188 187.868 330.681 187.868L339.412 189.32C341.999 189.481 346.833 188.981 345.475 185.691C343.778 183.917 339.072 180.175 333.834 179.4C331.651 178.836 326.703 178.916 324.375 183.755Z" fill="#402E28"/>
</g>
<path d="M462.134 138.027H456.313L441.033 154.479L431.332 190.771V199.723V205.046C432.464 207.062 435.407 211.094 438.123 211.094C440.71 210.933 446.757 209.497 450.25 205.046C454.777 199.723 464.656 186.271 467.954 175.045C469.329 167.302 470.089 149.06 462.134 138.027Z" fill="#775C52" stroke="black" stroke-width="0.485065"/>
<g filter="url(#filter8_d_168_154)">
<path d="M435.213 204.32C433.838 201.74 431.332 194.836 432.302 187.868L431.09 191.255V203.594L431.817 206.014L434.243 209.159C435.536 210.288 438.899 212.111 442.004 210.369C443.136 210.046 446.321 208.578 450.007 205.288L451.948 202.869C453.969 200.852 458.253 195.949 459.224 192.465C456.717 195.126 451.026 200.933 448.31 202.869C445.965 204.562 440.064 207.224 435.213 204.32Z" fill="#65362A"/>
</g>
<g filter="url(#filter9_d_168_154)">
<path d="M445.157 162.706C444.025 163.351 441.955 165.464 442.732 168.754C445.238 169.883 449.813 173.158 448.067 177.222C446.854 179.238 443.847 183.948 441.519 186.658C444.267 185.045 450.492 180.561 453.403 175.529C454.049 172.383 454.664 165.609 451.947 163.674C450.816 162.545 447.873 160.77 445.157 162.706Z" fill="#65362A"/>
</g>
<g filter="url(#filter10_d_168_154)">
<path d="M457.768 146.979L456.798 151.334C458.657 155.366 461.891 165.463 459.951 173.593C458.9 177.464 455.973 186.9 452.675 193.674L459.951 182.061C461.972 178.19 466.014 169.335 466.014 164.883C466.337 160.85 466.354 151.624 463.831 146.979C462.376 145.608 459.126 143.688 457.768 146.979Z" fill="#65362A"/>
</g>
<path d="M261.074 111.171C260.427 116.252 258.455 127.914 255.738 133.914C257.517 130.527 262.141 121.236 266.41 111.171C269.078 97.7839 276.257 68.6862 283.63 59.3957C285.812 52.1387 293.234 36.6077 305.457 32.54C315.967 36.5724 341.449 44.0565 359.3 41.7339C375.064 43.5887 408.825 46.7663 417.75 44.6372C421.307 44.3146 428.421 47.5405 428.421 63.0248C429.472 74.4768 430.944 99.2195 428.421 106.575C430.847 110.93 436.716 122.011 440.79 131.495L441.276 154.721L455.342 140.93L458.495 114.075C460.355 104.639 462.958 81.219 458.495 63.0248C456.151 55.6053 448.309 38.395 435.697 28.9108C424.864 19.6363 397.183 1.08732 373.124 1.08732C357.844 0.280846 321.707 4.71647 299.394 28.9108C292.603 33.9916 277.469 49.5243 271.26 71.0089L268.592 78.2672L266.41 89.6385L263.499 101.01L261.074 111.171Z" fill="#3E3B3B" stroke="black" stroke-width="0.485065"/>
<path d="M161.394 733.69H127.197L104.156 694.737L127.197 637.639H202.139L383.311 677.075L391.557 731.029L387.192 762.723C362.372 760.707 308.223 755.126 290.179 748.932L273.201 744.094H240.217H218.146L187.83 738.529L161.394 733.69Z" fill="#3A3EA1"/>
<path d="M364.636 122.301C363.261 121.898 359.445 120.608 355.177 118.672L359.057 115.769L362.938 116.979L362.453 115.043L366.091 115.769V115.043L369.244 115.769C373.043 115.123 382.049 114.607 387.676 117.704L390.344 118.672H392.527L394.224 120.366H396.407V121.817L400.045 122.301H398.348C401.662 123.995 408.922 128.398 411.444 132.463L408.291 130.527L395.68 126.172C390.991 124.559 380.837 121.672 377.732 123.027L377.247 123.511L376.277 123.027L375.549 123.511L374.822 123.027L373.609 123.511L372.639 123.027H371.669L370.941 122.301L369.244 123.511L368.516 122.301L366.576 123.511V122.301H364.636Z" fill="#201D1D" stroke="black" stroke-width="0.485065"/>
<path d="M279.022 106.817C276.516 108.188 270.679 113.059 267.381 121.576L271.019 118.188V117.463L272.232 118.188V116.979L273.202 117.463C275.142 115.769 280.187 112.575 284.843 113.35L286.298 114.317V113.35L287.996 114.317V113.35H289.209C291.957 113.188 297.988 113.446 300.123 115.769L301.335 115.043V115.769H303.033L304.003 116.979L304.731 117.463L305.458 116.979L306.671 118.188L307.399 116.979L308.126 118.188H314.917C316.938 117.382 320.592 115.092 319.04 112.382C318.393 110.527 315.451 106.43 308.854 104.882C301.416 103.753 285.037 102.559 279.022 106.817Z" fill="#201D1D" stroke="black" stroke-width="0.485065"/>
<ellipse cx="375.307" cy="138.995" rx="6.54837" ry="3.87109" fill="#1F120D"/>
<path opacity="0.8" d="M297.697 119.155C302.629 120.042 313.317 123.8 316.615 131.736C310.309 133.107 296.63 135.704 292.362 135.123C287.673 135.285 275.967 134.833 266.653 131.736C267.219 129.962 270 125.542 276.597 122.058C280.397 120.204 289.936 117.026 297.697 119.155Z" fill="#86655C"/>
<path d="M284.843 123.511C283.711 123.834 280.332 125.689 275.869 130.527L287.026 132.705C294.625 133.995 310.406 135.511 312.734 131.253L304.73 126.414C300.042 124.963 289.499 122.35 284.843 123.511Z" fill="#DADADA" stroke="#5B392B" stroke-width="0.970129"/>
<ellipse cx="287.996" cy="127.866" rx="6.54837" ry="3.3872" fill="#1F120D"/>
<path d="M220.086 566.751H226.15L233.426 583.444C233.992 594.171 234.056 618.042 229.788 627.72C227.847 636.591 221.299 654.334 210.628 654.334L177.401 649.979C174.975 653.447 167.36 660.382 156.3 660.382C140.778 662.237 106.096 664.302 91.5443 657.721C81.1154 657.318 58.0748 657.285 49.3436 660.382L23.6352 663.286C19.2695 663.447 11.3143 659.56 14.419 642.721C10.8618 638.124 4.42657 626.268 7.14266 615.623C5.52576 609.01 3.2621 594.235 7.14266 588.041C6.17253 583.525 5.49344 573.864 10.5381 571.347C18.4608 564.331 36.4406 549.766 44.9777 547.637L81.6001 538.685H109.734L91.5443 528.04C84.8341 523.604 70.2011 511.878 65.3508 500.458C65.0274 494.006 67.0485 482.119 77.7199 486.183L91.5443 500.458L105.369 508.2C109.977 511.345 122.103 517.636 133.745 517.636C138.838 517.475 150.48 519.765 156.3 530.217C158.968 535.379 169.591 549.04 190.74 562.396H195.106L220.086 566.751Z" fill="#81523F" stroke="#036DCD" stroke-width="0.485065"/>
<path d="M292.846 290.21L288.966 288.032L292.846 293.113L298.425 300.129L305.943 309.565L319.282 325.291L327.043 334.001C329.145 336.179 333.495 342.421 334.077 349.97L340.868 332.792L358.088 323.84C366.657 320.049 385.106 310.533 390.344 302.791C394.952 296.984 404.557 283.048 406.109 273.758L409.262 260.935L400.046 268.919C393.901 273.354 380.595 282.855 376.52 285.371L361.24 291.419L359.3 293.113H356.875L354.207 295.774H349.841L347.416 297.226H328.256L325.831 295.774H320.252L319.282 293.113H304.245L298.425 290.21H292.846Z" fill="#775C52" stroke="#036DCD" stroke-width="0.485065"/>
<path d="M226.149 567.718H249.19C259.861 595.057 260.249 658.059 249.19 680.705L216.448 668.124V661.592L209.657 652.398L222.269 639.333C227.281 621.832 235.075 583.009 226.149 567.718Z" fill="#D2D2D2" stroke="#036DCD" stroke-width="0.485065"/>
<g filter="url(#filter11_d_168_154)">
<path d="M541.199 377.31L551.628 356.986C559.712 360.293 575.881 369.954 575.881 382.148C581.944 399.004 593.44 439.199 590.918 465.135V484.248L599.164 493.2L590.918 504.088L588.735 526.588L590.918 543.041L599.164 559.493V605.22C593.101 642.157 575.105 718.691 551.628 729.337C543.948 733.127 516.024 740.708 465.771 740.708L453.645 735.869H409.746C396.003 731.434 363.423 723.917 343.05 729.337L246.765 722.562L253.798 666.19C256.223 642.398 258.891 589.639 250.16 568.928L311.763 576.671L375.549 591.913C381.613 589.171 396.941 585.332 409.746 591.913C417.103 586.832 437.395 576.671 459.708 576.671V572.316C461.002 562.557 465.141 539.218 471.35 523.927C479.03 504.652 498.174 461.748 513.308 444.328C526.081 430.053 549.542 396.665 541.199 377.31Z" fill="#3A3EA2"/>
<path d="M541.199 377.31L551.628 356.986C559.712 360.293 575.881 369.954 575.881 382.148C581.944 399.004 593.44 439.199 590.918 465.135V484.248L599.164 493.2L590.918 504.088L588.735 526.588L590.918 543.041L599.164 559.493V605.22C593.101 642.157 575.105 718.691 551.628 729.337C543.948 733.127 516.024 740.708 465.771 740.708L453.645 735.869H409.746C396.003 731.434 363.423 723.917 343.05 729.337L246.765 722.562L253.798 666.19C256.223 642.398 258.891 589.639 250.16 568.928L311.763 576.671L375.549 591.913C381.613 589.171 396.941 585.332 409.746 591.913C417.103 586.832 437.395 576.671 459.708 576.671V572.316C461.002 562.557 465.141 539.218 471.35 523.927C479.03 504.652 498.174 461.748 513.308 444.328C526.081 430.053 549.542 396.665 541.199 377.31Z" stroke="#036DCD" stroke-width="0.485065"/>
</g>
</g>
<defs>
<filter id="filter0_d_168_154" x="0.757812" y="0.757812" width="607.259" height="829.485" filterUnits="userSpaceOnUse" color-interpolation-filters="sRGB">
<feFlood flood-opacity="0" result="BackgroundImageFix"/>
<feColorMatrix in="SourceAlpha" type="matrix" values="0 0 0 0 0 0 0 0 0 0 0 0 0 0 0 0 0 0 127 0" result="hardAlpha"/>
<feOffset dy="4"/>
<feGaussianBlur stdDeviation="2"/>
<feComposite in2="hardAlpha" operator="out"/>
<feColorMatrix type="matrix" values="0 0 0 0 0 0 0 0 0 0 0 0 0 0 0 0 0 0 0.25 0"/>
<feBlend mode="normal" in2="BackgroundImageFix" result="effect1_dropShadow_168_154"/>
<feBlend mode="normal" in="SourceGraphic" in2="effect1_dropShadow_168_154" result="shape"/>
</filter>
<filter id="filter1_d_168_154" x="250.608" y="243.627" width="85.6579" height="159.625" filterUnits="userSpaceOnUse" color-interpolation-filters="sRGB">
<feFlood flood-opacity="0" result="BackgroundImageFix"/>
<feColorMatrix in="SourceAlpha" type="matrix" values="0 0 0 0 0 0 0 0 0 0 0 0 0 0 0 0 0 0 127 0" result="hardAlpha"/>
<feOffset dy="1.94026"/>
<feGaussianBlur stdDeviation="0.970129"/>
<feComposite in2="hardAlpha" operator="out"/>
<feColorMatrix type="matrix" values="0 0 0 0 0 0 0 0 0 0 0 0 0 0 0 0 0 0 0.25 0"/>
<feBlend mode="normal" in2="BackgroundImageFix" result="effect1_dropShadow_168_154"/>
<feBlend mode="normal" in="SourceGraphic" in2="effect1_dropShadow_168_154" result="shape"/>
</filter>
<filter id="filter2_d_168_154" x="314.401" y="272.744" width="97.0436" height="256.55" filterUnits="userSpaceOnUse" color-interpolation-filters="sRGB">
<feFlood flood-opacity="0" result="BackgroundImageFix"/>
<feColorMatrix in="SourceAlpha" type="matrix" values="0 0 0 0 0 0 0 0 0 0 0 0 0 0 0 0 0 0 127 0" result="hardAlpha"/>
<feOffset dy="1.94026"/>
<feGaussianBlur stdDeviation="0.970129"/>
<feComposite in2="hardAlpha" operator="out"/>
<feColorMatrix type="matrix" values="0 0 0 0 0 0 0 0 0 0 0 0 0 0 0 0 0 0 0.25 0"/>
<feBlend mode="normal" in2="BackgroundImageFix" result="effect1_dropShadow_168_154"/>
<feBlend mode="normal" in="SourceGraphic" in2="effect1_dropShadow_168_154" result="shape"/>
</filter>
<filter id="filter3_d_168_154" x="330.925" y="277.204" width="138.308" height="327.822" filterUnits="userSpaceOnUse" color-interpolation-filters="sRGB">
<feFlood flood-opacity="0" result="BackgroundImageFix"/>
<feColorMatrix in="SourceAlpha" type="matrix" values="0 0 0 0 0 0 0 0 0 0 0 0 0 0 0 0 0 0 127 0" result="hardAlpha"/>
<feOffset dy="1.94026"/>
<feGaussianBlur stdDeviation="0.970129"/>
<feComposite in2="hardAlpha" operator="out"/>
<feColorMatrix type="matrix" values="0 0 0 0 0 0 0 0 0 0 0 0 0 0 0 0 0 0 0.25 0"/>
<feBlend mode="normal" in2="BackgroundImageFix" result="effect1_dropShadow_168_154"/>
<feBlend mode="normal" in="SourceGraphic" in2="effect1_dropShadow_168_154" result="shape"/>
</filter>
<filter id="filter4_d_168_154" x="275.908" y="136.194" width="41.8109" height="20.8273" filterUnits="userSpaceOnUse" color-interpolation-filters="sRGB">
<feFlood flood-opacity="0" result="BackgroundImageFix"/>
<feColorMatrix in="SourceAlpha" type="matrix" values="0 0 0 0 0 0 0 0 0 0 0 0 0 0 0 0 0 0 127 0" result="hardAlpha"/>
<feOffset dy="0.970129"/>
<feGaussianBlur stdDeviation="0.242532"/>
<feComposite in2="hardAlpha" operator="out"/>
<feColorMatrix type="matrix" values="0 0 0 0 0 0 0 0 0 0 0 0 0 0 0 0 0 0 0.25 0"/>
<feBlend mode="normal" in2="BackgroundImageFix" result="effect1_dropShadow_168_154"/>
<feBlend mode="normal" in="SourceGraphic" in2="effect1_dropShadow_168_154" result="shape"/>
</filter>
<filter id="filter5_d_168_154" x="346.44" y="139.947" width="32.0356" height="38.4415" filterUnits="userSpaceOnUse" color-interpolation-filters="sRGB">
<feFlood flood-opacity="0" result="BackgroundImageFix"/>
<feColorMatrix in="SourceAlpha" type="matrix" values="0 0 0 0 0 0 0 0 0 0 0 0 0 0 0 0 0 0 127 0" result="hardAlpha"/>
<feOffset dy="0.970129"/>
<feGaussianBlur stdDeviation="0.242532"/>
<feComposite in2="hardAlpha" operator="out"/>
<feColorMatrix type="matrix" values="0 0 0 0 0 0 0 0 0 0 0 0 0 0 0 0 0 0 0.25 0"/>
<feBlend mode="normal" in2="BackgroundImageFix" result="effect1_dropShadow_168_154"/>
<feBlend mode="normal" in="SourceGraphic" in2="effect1_dropShadow_168_154" result="shape"/>
</filter>
<filter id="filter6_d_168_154" x="294.059" y="173.835" width="22.7985" height="19.3649" filterUnits="userSpaceOnUse" color-interpolation-filters="sRGB">
<feFlood flood-opacity="0" result="BackgroundImageFix"/>
<feColorMatrix in="SourceAlpha" type="matrix" values="0 0 0 0 0 0 0 0 0 0 0 0 0 0 0 0 0 0 127 0" result="hardAlpha"/>
<feOffset dy="1.94026"/>
<feGaussianBlur stdDeviation="0.970129"/>
<feComposite in2="hardAlpha" operator="out"/>
<feColorMatrix type="matrix" values="0 0 0 0 0 0 0 0 0 0 0 0 0 0 0 0 0 0 0.25 0"/>
<feBlend mode="normal" in2="BackgroundImageFix" result="effect1_dropShadow_168_154"/>
<feBlend mode="normal" in="SourceGraphic" in2="effect1_dropShadow_168_154" result="shape"/>
</filter>
<filter id="filter7_d_168_154" x="322.435" y="179.162" width="25.2165" height="14.0651" filterUnits="userSpaceOnUse" color-interpolation-filters="sRGB">
<feFlood flood-opacity="0" result="BackgroundImageFix"/>
<feColorMatrix in="SourceAlpha" type="matrix" values="0 0 0 0 0 0 0 0 0 0 0 0 0 0 0 0 0 0 127 0" result="hardAlpha"/>
<feOffset dy="1.94026"/>
<feGaussianBlur stdDeviation="0.970129"/>
<feComposite in2="hardAlpha" operator="out"/>
<feColorMatrix type="matrix" values="0 0 0 0 0 0 0 0 0 0 0 0 0 0 0 0 0 0 0.25 0"/>
<feBlend mode="normal" in2="BackgroundImageFix" result="effect1_dropShadow_168_154"/>
<feBlend mode="normal" in="SourceGraphic" in2="effect1_dropShadow_168_154" result="shape"/>
</filter>
<filter id="filter8_d_168_154" x="429.15" y="187.868" width="32.0143" height="27.1012" filterUnits="userSpaceOnUse" color-interpolation-filters="sRGB">
<feFlood flood-opacity="0" result="BackgroundImageFix"/>
<feColorMatrix in="SourceAlpha" type="matrix" values="0 0 0 0 0 0 0 0 0 0 0 0 0 0 0 0 0 0 127 0" result="hardAlpha"/>
<feOffset dy="1.94026"/>
<feGaussianBlur stdDeviation="0.970129"/>
<feComposite in2="hardAlpha" operator="out"/>
<feColorMatrix type="matrix" values="0 0 0 0 0 0 0 0 0 0 0 0 0 0 0 0 0 0 0.25 0"/>
<feBlend mode="normal" in2="BackgroundImageFix" result="effect1_dropShadow_168_154"/>
<feBlend mode="normal" in="SourceGraphic" in2="effect1_dropShadow_168_154" result="shape"/>
</filter>
<filter id="filter9_d_168_154" x="439.578" y="161.845" width="16.319" height="28.694" filterUnits="userSpaceOnUse" color-interpolation-filters="sRGB">
<feFlood flood-opacity="0" result="BackgroundImageFix"/>
<feColorMatrix in="SourceAlpha" type="matrix" values="0 0 0 0 0 0 0 0 0 0 0 0 0 0 0 0 0 0 127 0" result="hardAlpha"/>
<feOffset dy="1.94026"/>
<feGaussianBlur stdDeviation="0.970129"/>
<feComposite in2="hardAlpha" operator="out"/>
<feColorMatrix type="matrix" values="0 0 0 0 0 0 0 0 0 0 0 0 0 0 0 0 0 0 0.25 0"/>
<feBlend mode="normal" in2="BackgroundImageFix" result="effect1_dropShadow_168_154"/>
<feBlend mode="normal" in="SourceGraphic" in2="effect1_dropShadow_168_154" result="shape"/>
</filter>
<filter id="filter10_d_168_154" x="450.735" y="145.162" width="17.3708" height="52.3922" filterUnits="userSpaceOnUse" color-interpolation-filters="sRGB">
<feFlood flood-opacity="0" result="BackgroundImageFix"/>
<feColorMatrix in="SourceAlpha" type="matrix" values="0 0 0 0 0 0 0 0 0 0 0 0 0 0 0 0 0 0 127 0" result="hardAlpha"/>
<feOffset dy="1.94026"/>
<feGaussianBlur stdDeviation="0.970129"/>
<feComposite in2="hardAlpha" operator="out"/>
<feColorMatrix type="matrix" values="0 0 0 0 0 0 0 0 0 0 0 0 0 0 0 0 0 0 0.25 0"/>
<feBlend mode="normal" in2="BackgroundImageFix" result="effect1_dropShadow_168_154"/>
<feBlend mode="normal" in="SourceGraphic" in2="effect1_dropShadow_168_154" result="shape"/>
</filter>
<filter id="filter11_d_168_154" x="243.582" y="355.708" width="358.808" height="390.093" filterUnits="userSpaceOnUse" color-interpolation-filters="sRGB">
<feFlood flood-opacity="0" result="BackgroundImageFix"/>
<feColorMatrix in="SourceAlpha" type="matrix" values="0 0 0 0 0 0 0 0 0 0 0 0 0 0 0 0 0 0 127 0" result="hardAlpha"/>
<feOffset dy="1.94026"/>
<feGaussianBlur stdDeviation="1.45519"/>
<feComposite in2="hardAlpha" operator="out"/>
<feColorMatrix type="matrix" values="0 0 0 0 0 0 0 0 0 0 0 0 0 0 0 0 0 0 0.25 0"/>
<feBlend mode="normal" in2="BackgroundImageFix" result="effect1_dropShadow_168_154"/>
<feBlend mode="normal" in="SourceGraphic" in2="effect1_dropShadow_168_154" result="shape"/>
</filter>
</defs>
</svg>
