<svg width="803" height="803" viewBox="0 0 1003 1003" fill="none" xmlns="http://www.w3.org/2000/svg">
<g id="shape">
<path id="Aboutimage" d="M918.524 469.655C919.177 477.661 919.616 485.728 919.836 493.851L918.836 493.878C918.945 497.905 919 501.946 919 506C919 510.054 918.945 514.095 918.836 518.122L919.836 518.149C919.616 526.272 919.177 534.339 918.524 542.345L917.527 542.263C916.868 550.339 915.992 558.351 914.903 566.295L915.894 566.431C914.792 574.471 913.473 582.441 911.943 590.334L910.962 590.144C909.423 598.089 907.669 605.955 905.709 613.738L906.679 613.982C904.698 621.847 902.505 629.626 900.108 637.313L899.153 637.015C896.745 644.737 894.129 652.365 891.313 659.893L892.25 660.244C889.411 667.833 886.368 675.32 883.13 682.699L882.214 682.297C878.966 689.696 875.521 696.985 871.884 704.159L872.776 704.611C869.115 711.831 865.262 718.933 861.221 725.912L860.356 725.411C856.311 732.397 852.078 739.259 847.666 745.989L848.502 746.537C844.066 753.302 839.449 759.933 834.657 766.425L833.852 765.831C829.059 772.323 824.091 778.675 818.955 784.879L819.725 785.517C814.569 791.745 809.244 797.824 803.757 803.748L803.023 803.068C797.543 808.985 791.901 814.745 786.105 820.342L786.8 821.061C780.987 826.674 775.019 832.124 768.903 837.402L768.249 836.645C762.148 841.911 755.899 847.006 749.509 851.923L750.119 852.716C743.719 857.641 737.178 862.389 730.504 866.951L729.94 866.125C723.292 870.67 716.511 875.03 709.604 879.199L710.121 880.055C703.213 884.225 696.179 888.203 689.027 891.984L688.56 891.1C681.446 894.86 674.214 898.424 666.873 901.783L667.289 902.693C659.958 906.048 652.516 909.2 644.973 912.142L644.609 911.211C637.118 914.133 629.526 916.847 621.839 919.347L622.148 920.298C614.487 922.789 606.732 925.068 598.889 927.128L598.635 926.161C590.87 928.201 583.019 930.025 575.089 931.627L575.287 932.607C567.404 934.199 559.444 935.573 551.412 936.721L551.271 935.731C543.333 936.865 535.326 937.779 527.255 938.465L527.34 939.461C519.336 940.142 511.271 940.6 503.148 940.829L503.12 939.829C499.094 939.943 495.054 940 491 940C486.946 940 482.906 939.943 478.88 939.829L478.851 940.829C470.729 940.6 462.664 940.142 454.66 939.461L454.745 938.465C446.674 937.779 438.667 936.865 430.729 935.731L430.588 936.721C422.556 935.573 414.596 934.199 406.713 932.607L406.911 931.627C398.981 930.025 391.13 928.201 383.365 926.161L383.111 927.128C375.268 925.068 367.513 922.789 359.852 920.298L360.161 919.347C352.474 916.847 344.882 914.133 337.391 911.211L337.027 912.142C329.484 909.2 322.042 906.048 314.711 902.693L315.127 901.783C307.785 898.424 300.554 894.86 293.44 891.1L292.973 891.984C285.821 888.203 278.787 884.225 271.879 880.055L272.396 879.199C265.489 875.03 258.708 870.67 252.06 866.125L251.495 866.951C244.821 862.389 238.281 857.641 231.881 852.716L232.491 851.923C226.101 847.006 219.852 841.911 213.751 836.645L213.097 837.402C206.981 832.124 201.013 826.674 195.2 821.061L195.895 820.342C190.099 814.745 184.457 808.985 178.976 803.068L178.243 803.748C172.756 797.824 167.431 791.745 162.275 785.517L163.045 784.879C157.909 778.675 152.941 772.323 148.148 765.831L147.343 766.425C142.551 759.933 137.934 753.302 133.498 746.537L134.334 745.989C129.922 739.259 125.689 732.397 121.644 725.411L120.779 725.912C116.738 718.933 112.884 711.831 109.224 704.611L110.116 704.159C106.479 696.985 103.034 689.696 99.7861 682.297L98.8704 682.699C95.6315 675.32 92.5893 667.833 89.7504 660.244L90.687 659.893C87.8709 652.365 85.2553 644.737 82.847 637.015L81.8923 637.313C79.4949 629.626 77.3024 621.847 75.3212 613.982L76.2909 613.738C74.3305 605.955 72.5775 598.089 71.0382 590.144L70.0565 590.334C68.5272 582.441 67.2084 574.471 66.1064 566.431L67.0971 566.295C66.0083 558.351 65.1315 550.339 64.4728 542.263L63.4761 542.345C62.823 534.339 62.3838 526.272 62.1641 518.149L63.1637 518.122C63.0548 514.095 63 510.054 63 506C63 501.946 63.0548 497.905 63.1637 493.878L62.1641 493.851C62.3838 485.728 62.823 477.661 63.4761 469.655L64.4728 469.737C65.1315 461.661 66.0083 453.649 67.0971 445.705L66.1064 445.569C67.2084 437.529 68.5272 429.559 70.0565 421.666L71.0383 421.856C72.5775 413.911 74.3305 406.045 76.2909 398.262L75.3212 398.018C77.3024 390.153 79.4949 382.374 81.8924 374.687L82.847 374.985C85.2553 367.263 87.8709 359.635 90.687 352.107L89.7504 351.756C92.5893 344.167 95.6315 336.68 98.8704 329.301L99.7861 329.703C103.034 322.304 106.479 315.015 110.116 307.841L109.224 307.389C112.885 300.169 116.738 293.067 120.779 286.088L121.644 286.589C125.689 279.603 129.922 272.741 134.334 266.011L133.498 265.463C137.934 258.698 142.551 252.067 147.343 245.575L148.148 246.169C152.941 239.677 157.909 233.325 163.045 227.121L162.275 226.483C167.431 220.255 172.756 214.176 178.243 208.252L178.976 208.932C184.457 203.015 190.099 197.255 195.895 191.658L195.2 190.939C201.013 185.326 206.981 179.876 213.097 174.598L213.751 175.355C219.852 170.089 226.101 164.994 232.491 160.077L231.881 159.284C238.281 154.359 244.822 149.611 251.496 145.049L252.06 145.875C258.708 141.33 265.489 136.97 272.396 132.801L271.879 131.945C278.787 127.775 285.821 123.796 292.973 120.016L293.44 120.9C300.554 117.14 307.786 113.576 315.127 110.217L314.711 109.307C322.043 105.952 329.484 102.8 337.027 99.8575L337.391 100.789C344.882 97.8675 352.474 95.1532 360.161 92.6533L359.852 91.7024C367.513 89.2108 375.268 86.9316 383.111 84.8718L383.365 85.839C391.13 83.7993 398.981 81.9752 406.911 80.3732L406.713 79.393C414.596 77.8006 422.556 76.4273 430.588 75.2794L430.729 76.2694C438.667 75.1351 446.674 74.2215 454.745 73.5351L454.66 72.5387C462.664 71.858 470.729 71.4001 478.852 71.1711L478.88 72.1707C482.906 72.0571 486.946 72 491 72C495.054 72 499.094 72.0571 503.12 72.1707L503.149 71.1711C511.271 71.4001 519.336 71.858 527.34 72.5387L527.255 73.5351C535.326 74.2215 543.333 75.1351 551.271 76.2694L551.412 75.2794C559.444 76.4273 567.404 77.8006 575.287 79.393L575.089 80.3732C583.019 81.9752 590.87 83.7993 598.635 85.839L598.889 84.8718C606.732 86.9316 614.487 89.2108 622.148 91.7024L621.839 92.6533C629.526 95.1532 637.118 97.8675 644.609 100.789L644.973 99.8576C652.516 102.8 659.958 105.952 667.289 109.307L666.873 110.217C674.214 113.576 681.446 117.14 688.56 120.9L689.027 120.016C696.179 123.796 703.213 127.775 710.121 131.945L709.604 132.801C716.511 136.97 723.292 141.33 729.94 145.875L730.505 145.049C737.179 149.611 743.719 154.359 750.119 159.284L749.509 160.077C755.899 164.994 762.148 170.089 768.249 175.355L768.903 174.598C775.019 179.876 780.987 185.326 786.8 190.939L786.105 191.658C791.901 197.255 797.543 203.015 803.024 208.932L803.757 208.252C809.244 214.176 814.569 220.255 819.725 226.483L818.955 227.121C824.091 233.325 829.059 239.677 833.852 246.169L834.657 245.575C839.449 252.067 844.066 258.698 848.502 265.463L847.666 266.011C852.078 272.741 856.311 279.603 860.356 286.589L861.221 286.088C865.262 293.067 869.115 300.169 872.776 307.389L871.884 307.841C875.521 315.015 878.966 322.304 882.214 329.703L883.13 329.301C886.368 336.68 889.411 344.167 892.25 351.756L891.313 352.107C894.129 359.635 896.745 367.263 899.153 374.985L900.108 374.687C902.505 382.374 904.698 390.153 906.679 398.018L905.709 398.262C907.67 406.045 909.423 413.911 910.962 421.856L911.943 421.666C913.473 429.559 914.792 437.529 915.894 445.569L914.903 445.705C915.992 453.649 916.868 461.661 917.527 469.737L918.524 469.655Z" stroke="#B1B1B1" stroke-width="2" stroke-dasharray="24 24"/>
<g id="Group 171">
<g id="Group 172">
<circle id="Ellipse 87" cx="508.5" cy="77.5" r="77" fill="#0275D8" stroke="white"/>
<g id="ph:figma-logo-thin">
<path id="Vector" d="M530.2 64.3512C533.165 62.8749 535.544 60.4402 536.951 57.4421C538.359 54.444 538.712 51.0583 537.953 47.8344C537.194 44.6105 535.369 41.7376 532.772 39.6815C530.176 37.6255 526.961 36.5071 523.649 36.5078H497.352C494.04 36.507 490.825 37.6253 488.228 39.6813C485.631 41.7373 483.805 44.6105 483.047 47.8345C482.288 51.0585 482.641 54.4443 484.049 57.4425C485.456 60.4407 487.835 62.8754 490.8 64.3516C488.354 65.5688 486.296 67.4442 484.858 69.767C483.419 72.0897 482.657 74.7677 482.657 77.4998C482.657 80.2319 483.419 82.9099 484.858 85.2326C486.296 87.5554 488.354 89.4308 490.8 90.6481C488.457 91.8156 486.469 93.5877 485.041 95.7811C483.613 97.9745 482.797 100.51 482.677 103.124C482.557 105.739 483.137 108.338 484.358 110.653C485.579 112.968 487.397 114.915 489.622 116.292C491.848 117.67 494.401 118.427 497.018 118.487C499.635 118.547 502.22 117.907 504.506 116.633C506.793 115.359 508.697 113.497 510.023 111.241C511.349 108.984 512.047 106.414 512.047 103.796V86.5032C513.4 88.2472 515.128 89.6641 517.103 90.6484C519.079 91.6328 521.25 92.1593 523.457 92.189C525.664 92.2186 527.849 91.7506 529.85 90.8197C531.852 89.8887 533.617 88.5188 535.016 86.8118C536.415 85.1047 537.411 83.1043 537.931 80.9593C538.45 78.8143 538.48 76.5798 538.017 74.4218C537.555 72.2637 536.612 70.2377 535.258 68.4943C533.905 66.7508 532.176 65.3347 530.2 64.3512ZM535.25 51.2031C535.247 54.2777 534.025 57.2254 531.851 59.4002C529.678 61.575 526.731 62.7993 523.656 62.8047L523.649 62.8043L523.634 62.8047L512.047 62.8043V39.6016H523.649C526.725 39.605 529.673 40.8285 531.848 43.0034C534.023 45.1784 535.247 48.1273 535.25 51.2031V51.2031ZM514.645 65.8984C513.674 66.6532 512.802 67.5258 512.047 68.496V65.8981L514.645 65.8984ZM485.75 51.2027C485.754 48.1269 486.977 45.178 489.152 43.003C491.327 40.8281 494.276 39.6047 497.352 39.6012H508.953V62.8043H497.344C494.27 62.7989 491.323 61.5747 489.15 59.4C486.976 57.2253 485.754 54.2776 485.75 51.2031V51.2027ZM497.352 115.397C495.82 115.41 494.302 115.119 492.883 114.542C491.465 113.964 490.174 113.112 489.087 112.033C488 110.955 487.137 109.671 486.548 108.258C485.959 106.844 485.656 105.328 485.656 103.796C485.656 102.265 485.959 100.748 486.548 99.3345C487.137 97.9208 488 96.6376 489.087 95.5591C490.174 94.4806 491.465 93.6281 492.883 93.0507C494.302 92.4733 495.82 92.1824 497.352 92.1949H508.953V103.796C508.95 106.872 507.726 109.821 505.551 111.996C503.376 114.171 500.428 115.394 497.352 115.398V115.397ZM508.953 89.1004L497.352 89.1012C494.275 89.1022 491.324 87.8808 489.147 85.7058C486.971 83.5307 485.748 80.5802 485.747 77.5033C485.746 74.4264 486.967 71.4751 489.142 69.2987C491.317 67.1223 494.268 65.899 497.344 65.8981L497.352 65.8984H508.953V89.1004ZM523.649 89.1008C520.583 89.0852 517.649 87.8571 515.486 85.6847C513.323 83.5123 512.108 80.5723 512.106 77.5069C512.104 74.4415 513.315 71.4999 515.475 69.3247C517.635 67.1496 520.568 65.9176 523.634 65.8981H523.656C526.733 65.8991 529.684 67.1224 531.859 69.2988C534.034 71.4752 535.255 74.4266 535.254 77.5035C535.253 80.5804 534.03 83.5309 531.853 85.7059C529.677 87.8809 526.726 89.1022 523.649 89.1012V89.1008Z" fill="white"/>
</g>
</g>
</g>
<g id="Group 173">
<circle id="Ellipse 91" cx="828.5" cy="216.5" r="77" fill="#0275D8" stroke="white"/>
<g id="cib:adobe-xd" clip-path="url(#clip0_1010_7)">
<path id="Vector_2" d="M853.074 177.918H805.928C804.23 177.916 802.548 178.249 800.978 178.898C799.409 179.547 797.983 180.499 796.782 181.7C795.581 182.901 794.629 184.327 793.98 185.896C793.331 187.465 792.998 189.148 793 190.846V236.161C792.998 237.859 793.331 239.541 793.98 241.11C794.629 242.68 795.581 244.106 796.782 245.307C797.983 246.508 799.409 247.46 800.978 248.109C802.548 248.758 804.23 249.091 805.928 249.088H853.074C854.773 249.091 856.455 248.758 858.024 248.109C859.594 247.46 861.02 246.508 862.221 245.307C863.421 244.106 864.374 242.68 865.022 241.11C865.671 239.541 866.004 237.859 866.002 236.161V190.846C866.004 189.148 865.671 187.465 865.022 185.896C864.374 184.327 863.421 182.901 862.221 181.7C861.02 180.499 859.594 179.547 858.024 178.898C856.455 178.249 854.773 177.916 853.074 177.918V177.918ZM862.925 234.974C862.933 236.425 862.655 237.863 862.106 239.205C861.557 240.548 860.748 241.768 859.725 242.797C858.703 243.826 857.487 244.643 856.148 245.2C854.809 245.757 853.373 246.045 851.922 246.045H807.082C804.156 246.041 801.35 244.877 799.281 242.807C797.212 240.738 796.047 237.933 796.043 235.006V191.998C796.047 189.071 797.212 186.266 799.281 184.197C801.35 182.127 804.156 180.963 807.082 180.959H851.886C854.813 180.959 857.621 182.123 859.691 184.193C861.761 186.263 862.924 189.07 862.925 191.998V234.974ZM821.862 211.222L830.383 227.583C830.538 227.832 830.444 228.069 830.203 228.069H824.903C824.573 228.069 824.417 227.987 824.274 227.677C822.328 223.662 820.341 219.647 818.308 215.333H818.251C816.381 219.487 814.451 223.614 812.464 227.713C812.324 227.95 812.169 228.044 811.918 228.044H806.902C806.594 228.044 806.571 227.795 806.726 227.617L815.055 211.742L807 195.68C806.808 195.431 807 195.251 807.176 195.251H812.404C812.712 195.251 812.833 195.313 812.952 195.582C814.893 199.629 816.79 203.696 818.644 207.784H818.701C820.471 203.769 822.421 199.599 824.296 195.618C824.452 195.37 824.545 195.214 824.844 195.214H829.737C829.986 195.214 830.082 195.406 829.929 195.643L821.862 211.222ZM831.877 216.177C831.877 209.096 836.583 203.557 844.068 203.557C844.709 203.557 845.042 203.557 845.649 203.619V195.563C845.649 195.372 845.802 195.253 845.957 195.253H850.757C851.005 195.253 851.067 195.347 851.067 195.49V223.424C851.067 224.243 851.067 225.277 851.222 226.392C851.222 226.584 851.16 226.641 850.973 226.739C848.541 227.895 845.883 228.495 843.19 228.498C836.583 228.532 831.877 224.458 831.877 216.177V216.177ZM845.651 208.393C845.089 208.178 844.492 208.074 843.89 208.085C840.055 208.085 837.382 211.042 837.382 215.94C837.382 221.535 840.112 223.78 843.559 223.78C844.283 223.78 845.081 223.698 845.651 223.449V208.393Z" fill="white"/>
</g>
</g>
<g id="Group 174">
<circle id="Ellipse 90" cx="925.5" cy="505.5" r="77" fill="#0275D8" stroke="white"/>
<g id="fluent:javascript-20-regular">
<g id="Group">
<path id="Vector_3" d="M932 504C932 502.409 932.632 500.883 933.757 499.757C934.883 498.632 936.409 498 938 498H944C944.53 498 945.039 498.211 945.414 498.586C945.789 498.961 946 499.47 946 500C946 500.53 945.789 501.039 945.414 501.414C945.039 501.789 944.53 502 944 502H938C937.47 502 936.961 502.211 936.586 502.586C936.211 502.961 936 503.47 936 504V508C936 508.53 936.211 509.039 936.586 509.414C936.961 509.789 937.47 510 938 510H940C941.591 510 943.117 510.632 944.243 511.757C945.368 512.883 946 514.409 946 516V520C946 521.591 945.368 523.117 944.243 524.243C943.117 525.368 941.591 526 940 526H934C933.47 526 932.961 525.789 932.586 525.414C932.211 525.039 932 524.53 932 524C932 523.47 932.211 522.961 932.586 522.586C932.961 522.211 933.47 522 934 522H940C940.53 522 941.039 521.789 941.414 521.414C941.789 521.039 942 520.53 942 520V516C942 515.47 941.789 514.961 941.414 514.586C941.039 514.211 940.53 514 940 514H938C936.409 514 934.883 513.368 933.757 512.243C932.632 511.117 932 509.591 932 508V504Z" fill="white"/>
<path id="Vector_4" d="M930 500C930 499.47 929.789 498.961 929.414 498.586C929.039 498.211 928.53 498 928 498C927.47 498 926.961 498.211 926.586 498.586C926.211 498.961 926 499.47 926 500V520C926 520.53 925.789 521.039 925.414 521.414C925.039 521.789 924.53 522 924 522H920C919.47 522 918.961 522.211 918.586 522.586C918.211 522.961 918 523.47 918 524C918 524.53 918.211 525.039 918.586 525.414C918.961 525.789 919.47 526 920 526H924C925.591 526 927.117 525.368 928.243 524.243C929.368 523.117 930 521.591 930 520V500Z" fill="white"/>
<path id="Vector_5" d="M898 490V522C898 525.183 899.264 528.235 901.515 530.485C903.765 532.736 906.817 534 910 534H942C945.183 534 948.235 532.736 950.485 530.485C952.736 528.235 954 525.183 954 522V490C954 486.817 952.736 483.765 950.485 481.515C948.235 479.264 945.183 478 942 478H910C906.817 478 903.765 479.264 901.515 481.515C899.264 483.765 898 486.817 898 490V490ZM910 482H942C944.122 482 946.157 482.843 947.657 484.343C949.157 485.843 950 487.878 950 490V522C950 524.122 949.157 526.157 947.657 527.657C946.157 529.157 944.122 530 942 530H910C907.878 530 905.843 529.157 904.343 527.657C902.843 526.157 902 524.122 902 522V490C902 487.878 902.843 485.843 904.343 484.343C905.843 482.843 907.878 482 910 482V482Z" fill="white"/>
</g>
</g>
</g>
<g id="Group 175">
<circle id="Ellipse 94" cx="808.5" cy="790.5" r="77" fill="#0275D8" stroke="white"/>
<g id="teenyicons:css3-outline" clip-path="url(#clip1_1010_7)">
<g id="Group_2">
<path id="Vector_6" d="M778.399 763.4V761C778.067 761 777.738 761.069 777.434 761.203C777.13 761.336 776.857 761.532 776.633 761.776C776.408 762.021 776.237 762.309 776.129 762.623C776.022 762.938 775.981 763.271 776.008 763.602L778.399 763.4ZM845.599 763.4L847.989 763.602C848.017 763.271 847.976 762.938 847.869 762.623C847.761 762.309 847.59 762.021 847.365 761.776C847.14 761.532 846.867 761.336 846.563 761.203C846.259 761.069 845.931 761 845.599 761V763.4ZM840.799 821L841.557 823.275C842.003 823.126 842.395 822.85 842.685 822.481C842.975 822.111 843.15 821.665 843.189 821.197L840.799 821ZM811.999 830.6L811.24 832.875C811.733 833.04 812.265 833.04 812.757 832.875L811.999 830.6ZM783.199 821L780.808 821.197C780.847 821.665 781.023 822.111 781.313 822.481C781.603 822.85 781.995 823.126 782.44 823.275L783.199 821ZM826.399 777.8H828.799V775.4H826.399V777.8ZM826.399 806.6L827.157 808.875L828.799 808.328V806.6H826.399ZM811.999 811.4L811.24 813.675L811.999 813.93L812.757 813.675L811.999 811.4ZM797.599 806.6H795.199V808.328L796.84 808.875L797.599 806.6ZM778.399 765.8H845.599V761H778.399V765.8ZM843.208 763.198L838.408 820.798L843.189 821.197L847.989 763.597L843.208 763.198V763.198ZM840.04 818.725L811.24 828.325L812.757 832.875L841.557 823.275L840.04 818.725ZM812.757 828.325L783.957 818.725L782.44 823.275L811.24 832.875L812.757 828.325ZM785.589 820.803L780.789 763.203L776.008 763.602L780.808 821.202L785.589 820.803ZM826.399 775.4H795.199V780.2H826.399V775.4ZM804.799 794.6H826.399V789.8H804.799V794.6ZM823.999 792.2V806.6H828.799V792.2H823.999ZM825.64 804.325L811.24 809.125L812.757 813.675L827.157 808.875L825.64 804.325ZM812.757 809.125L798.357 804.325L796.84 808.875L811.24 813.675L812.757 809.125ZM799.999 806.6V799.4H795.199V806.6H799.999ZM823.999 777.8V792.2H828.799V777.8H823.999Z" fill="white"/>
</g>
</g>
</g>
<g id="Group 176">
<circle id="Ellipse 88" cx="508.5" cy="925.5" r="77" fill="#0275D8" stroke="white"/>
<g id="bx:bxl-react">
<path id="Vector_7" d="M509 929.093C511.957 929.093 514.355 926.695 514.355 923.738C514.355 920.78 511.957 918.383 509 918.383C506.042 918.383 503.645 920.78 503.645 923.738C503.645 926.695 506.042 929.093 509 929.093Z" fill="white"/>
<path id="Vector_8" d="M494.001 934.38L492.816 934.077C484.014 931.854 478.965 928.074 478.965 923.721C478.965 919.365 484.017 915.588 492.816 913.365L494.001 913.065L494.334 914.238C495.223 917.31 496.363 920.303 497.742 923.187L497.997 923.721L497.742 924.255C496.362 927.144 495.219 930.139 494.334 933.211L494.001 934.38V934.38ZM492.27 916.096C485.583 917.98 481.476 920.854 481.476 923.721C481.476 926.583 485.58 929.46 492.27 931.341C493.089 928.737 494.079 926.19 495.225 923.721C494.071 921.248 493.083 918.701 492.27 916.096V916.096ZM523.986 934.38L523.656 933.205C522.764 930.133 521.623 927.139 520.245 924.253L519.99 923.721L520.245 923.185C521.625 920.302 522.762 917.304 523.656 914.232L523.986 913.062L525.171 913.362C533.976 915.585 539.022 919.363 539.022 923.721C539.022 928.077 533.973 931.854 525.171 934.077L523.986 934.38V934.38ZM522.756 923.721C523.956 926.319 524.955 928.875 525.717 931.341C532.407 929.46 536.514 926.583 536.514 923.721C536.514 920.854 532.41 917.983 525.717 916.096C524.899 918.7 523.91 921.247 522.756 923.721V923.721Z" fill="white"/>
<path id="Vector_9" d="M492.252 916.088L491.922 914.918C489.444 906.194 490.194 899.945 493.983 897.767C497.688 895.622 503.649 898.157 509.892 904.562L510.744 905.438L509.892 906.311C507.675 908.617 505.648 911.099 503.832 913.733L503.493 914.219L502.905 914.267C499.712 914.518 496.544 915.028 493.434 915.794L492.252 916.088V916.088ZM496.998 899.501C496.326 899.501 495.732 899.648 495.231 899.936C492.747 901.367 492.309 906.35 494.019 913.076C496.692 912.485 499.389 912.062 502.107 911.825C503.68 909.593 505.397 907.466 507.246 905.456C503.337 901.655 499.647 899.501 496.998 899.501V899.501ZM520.989 950.453C517.425 950.453 512.847 947.765 508.095 942.887L507.246 942.014L508.095 941.144C510.313 938.834 512.34 936.349 514.158 933.713L514.494 933.233L515.076 933.176C518.27 932.93 521.439 932.421 524.55 931.655L525.735 931.355L526.068 932.528C528.534 941.246 527.787 947.504 524.004 949.682C523.085 950.203 522.045 950.469 520.989 950.453V950.453ZM510.744 941.993C514.65 945.794 518.343 947.951 520.989 947.951C521.664 947.951 522.258 947.801 522.756 947.516C525.243 946.082 525.684 941.09 523.968 934.364C521.298 934.958 518.598 935.384 515.874 935.621C514.307 937.856 512.593 939.985 510.744 941.993V941.993Z" fill="white"/>
<path id="Vector_10" d="M525.736 916.086L524.551 915.789C521.44 915.021 518.271 914.511 515.077 914.262L514.495 914.211L514.159 913.725C512.343 911.09 510.316 908.608 508.096 906.303L507.247 905.43L508.096 904.56C514.336 898.158 520.294 895.623 524.005 897.765C527.791 899.946 528.544 906.195 526.069 914.916L525.736 916.086ZM515.875 911.823C518.737 912.078 521.449 912.507 523.969 913.074C525.682 906.348 525.244 901.365 522.757 899.931C520.285 898.5 515.632 900.69 510.745 905.454C512.593 907.464 514.309 909.588 515.875 911.823ZM496.999 950.451C495.943 950.466 494.902 950.2 493.984 949.68C490.195 947.502 489.445 941.247 491.92 932.526L492.244 931.353L493.429 931.653C496.321 932.382 499.507 932.895 502.903 933.174L503.485 933.231L503.824 933.711C505.636 936.345 507.664 938.832 509.884 941.142L510.736 942.012L509.884 942.885C505.135 947.766 500.557 950.451 496.999 950.451V950.451ZM494.02 934.365C492.31 941.091 492.748 946.083 495.232 947.517C497.707 948.927 502.345 946.752 507.247 941.991C505.398 939.981 503.682 937.854 502.108 935.622C499.387 935.382 496.685 934.962 494.02 934.365V934.365Z" fill="white"/>
<path id="Vector_11" d="M509 935.938C506.939 935.938 504.824 935.851 502.7 935.674L502.112 935.623L501.773 935.137C500.576 933.415 499.449 931.644 498.395 929.83C497.35 928.011 496.378 926.151 495.482 924.253L495.23 923.722L495.482 923.185C496.379 921.289 497.348 919.429 498.395 917.611C499.436 915.823 500.573 914.035 501.773 912.301L502.112 911.821L502.7 911.767C506.891 911.416 511.104 911.416 515.294 911.767L515.876 911.824L516.215 912.304C518.615 915.75 520.722 919.391 522.515 923.188L522.764 923.725L522.515 924.256C520.727 928.056 518.62 931.697 516.215 935.14L515.876 935.626L515.294 935.677C513.176 935.848 511.058 935.938 509 935.938V935.938ZM503.498 933.226C507.203 933.505 510.797 933.505 514.499 933.226C516.566 930.2 518.403 927.023 519.995 923.722C518.409 920.418 516.572 917.241 514.499 914.218C510.838 913.936 507.16 913.936 503.498 914.218C501.425 917.24 499.587 920.417 498.002 923.722C499.598 927.021 501.435 930.198 503.498 933.226V933.226Z" fill="white"/>
</g>
</g>
<g id="Group 177">
<circle id="Ellipse 93" cx="188.5" cy="790.5" r="77" fill="#0275D8" stroke="white"/>
<g id="teenyicons:html5-outline" clip-path="url(#clip2_1010_7)">
<g id="Group_3">
<path id="Vector_12" d="M154.432 763.433V761C154.096 761 153.763 761.07 153.454 761.206C153.146 761.341 152.869 761.539 152.642 761.787C152.414 762.035 152.24 762.327 152.131 762.646C152.022 762.965 151.98 763.302 152.009 763.638L154.432 763.433ZM222.566 763.433L224.989 763.638C225.017 763.302 224.976 762.965 224.867 762.646C224.758 762.327 224.584 762.035 224.356 761.787C224.128 761.539 223.852 761.341 223.543 761.206C223.235 761.07 222.902 761 222.566 761V763.433ZM217.699 821.833L218.468 824.14C218.92 823.989 219.317 823.709 219.611 823.335C219.905 822.96 220.083 822.508 220.122 822.033L217.699 821.833ZM188.499 831.567L187.73 833.873C188.229 834.04 188.769 834.04 189.268 833.873L188.499 831.567ZM159.299 821.833L156.875 822.033C156.915 822.508 157.092 822.96 157.386 823.335C157.681 823.709 158.078 823.989 158.53 824.14L159.299 821.833ZM173.899 778.033V775.6H171.466V778.033H173.899ZM173.899 792.633H171.466V795.067H173.899V792.633ZM203.099 792.633H205.532V790.2H203.099V792.633ZM203.099 807.233L203.868 809.54L205.532 808.985V807.233H203.099ZM188.499 812.1L187.73 814.407L188.499 814.665L189.268 814.407L188.499 812.1ZM173.899 807.233H171.466V808.985L173.13 809.54L173.899 807.233ZM154.432 765.867H222.566V761H154.432V765.867ZM220.142 763.229L215.275 821.629L220.122 822.033L224.989 763.633L220.142 763.229V763.229ZM216.93 819.527L187.73 829.26L189.268 833.873L218.468 824.14L216.93 819.527ZM189.268 829.26L160.068 819.527L158.53 824.14L187.73 833.873L189.268 829.26ZM161.722 821.634L156.856 763.234L152.009 763.638L156.875 822.038L161.722 821.634ZM205.532 775.6H173.899V780.467H205.532V775.6ZM171.466 778.033V792.633H176.332V778.033H171.466ZM173.899 795.067H203.099V790.2H173.899V795.067ZM200.666 792.633V807.233H205.532V792.633H200.666ZM202.33 804.927L187.73 809.793L189.268 814.407L203.868 809.54L202.33 804.927ZM189.268 809.793L174.668 804.927L173.13 809.54L187.73 814.407L189.268 809.793ZM176.332 807.233V799.933H171.466V807.233H176.332Z" fill="white"/>
</g>
</g>
</g>
<g id="Group 178">
<circle id="Ellipse 89" cx="77.5" cy="505.5" r="77" fill="#0275D8" stroke="white"/>
<g id="la:invision">
<path id="Vector_13" d="M46.3438 476.344V530.656H100.656V476.344H46.3438ZM51.2812 481.281H95.7188V525.719H51.2812V481.281ZM65.8518 488.688C64.4496 488.697 63.0522 489.633 63.0473 491.485C63.0473 493.065 64.3311 494.324 65.9012 494.324C66.3431 494.311 68.7403 493.904 68.6983 491.44C68.6662 489.594 67.2565 488.678 65.8518 488.688V488.688ZM82.3974 496.595C80.2989 496.77 78.0104 498.222 76.4131 501.199L77.3488 496.943H70.1104L69.0933 500.683H72.4878L70.4042 509.04C68.6687 512.901 64.3681 513.681 64.3681 511.479C64.4002 510.294 64.2891 511.01 67.8243 496.943H59.7861L58.769 500.688H62.1166C59.791 510.168 59.7046 510.136 59.6972 511.639C59.6972 516.762 66.3332 517.54 69.6463 512.091L68.7946 515.51H73.5395L76.2551 504.643C77.8006 498.363 84.0391 499.691 82.5554 504.569C81.5975 508.001 78.2795 515.787 85.1821 515.787C87.6854 515.787 89.6777 514.175 90.7812 510.314L88.9001 509.61C87.3966 513.765 85.5549 513.017 85.5549 511.383C85.587 510.531 85.629 510.573 87.1226 505.196C88.8383 499.555 85.8882 496.304 82.3974 496.595V496.595Z" fill="white"/>
</g>
</g>
<g id="Group 179">
<circle id="Ellipse 92" cx="188.5" cy="216.5" r="77" fill="#0275D8" stroke="white"/>
<g id="cib:adobe-photoshop">
<path id="Vector_14" d="M152 182.879V251.125H222V182.879H152ZM154.916 185.795H219.082V248.206H154.916V185.795ZM168.918 198.863C168.918 198.668 169.329 198.522 169.568 198.522C172.073 198.416 174.581 198.366 177.088 198.373C185.178 198.373 188.321 202.805 188.321 208.479C188.321 215.897 182.944 219.075 176.358 219.075C175.242 219.075 174.866 219.019 174.092 219.019V230.23C174.092 230.468 174 230.571 173.761 230.571H169.248C169.01 230.571 168.918 230.479 168.918 230.24V198.863ZM174.092 214.359C174.763 214.405 175.299 214.405 176.461 214.405C179.867 214.405 183.08 213.198 183.08 208.584C183.08 204.881 180.779 203.002 176.883 203.002C175.732 203.002 174.627 203.048 174.092 203.094V214.359ZM199.202 210.883C196.89 210.883 196.115 212.045 196.115 213.003C196.115 214.062 196.64 214.781 199.727 216.376C204.297 218.599 205.743 220.705 205.743 223.838C205.743 228.497 202.177 231.004 197.369 231.004C194.816 231.004 192.642 230.468 191.388 229.75C191.207 229.659 191.161 229.512 191.161 229.271V224.988C191.161 224.704 191.298 224.601 191.491 224.75C193.237 225.885 195.275 226.487 197.358 226.482C199.67 226.482 200.628 225.524 200.628 224.216C200.628 223.157 199.957 222.245 197.027 220.707C192.88 218.725 191.147 216.709 191.147 213.335C191.147 209.575 194.088 206.454 199.18 206.454C201.687 206.454 203.452 206.841 204.421 207.263C204.66 207.412 204.706 207.65 204.706 207.845V211.844C204.706 212.082 204.557 212.231 204.272 212.128C202.973 211.365 201.059 210.875 199.191 210.875L199.202 210.883Z" fill="white"/>
</g>
</g>
</g>
<defs>
<clipPath id="clip0_1010_7">
<rect width="73" height="73" fill="white" transform="translate(793 177)"/>
</clipPath>
<clipPath id="clip1_1010_7">
<rect width="72" height="72" fill="white" transform="translate(776 761)"/>
</clipPath>
<clipPath id="clip2_1010_7">
<rect width="73" height="73" fill="white" transform="translate(152 761)"/>
</clipPath>
</defs>
</svg>
