<svg opacity="0.029" width="4100" height="4210" viewBox="0 0 4194 4638" fill="none" xmlns="http://www.w3.org/2000/svg">
<path d="M1225.02 3619.66C1144.96 3619.66 1081.2 3595.02 1037.05 3545.28C928.924 3423.21 952.244 3159.9 1101.01 2823.12C1391.3 2165.54 2072.86 1402.55 2620.07 1122.36C2869.94 994.356 3060.6 983.859 3156.76 1092.47C3264.89 1214.54 3241.55 1477.84 3092.78 1814.62C2802.47 2472.2 2120.91 3235.2 1573.71 3515.39C1438.34 3584.75 1320.14 3619.66 1225.02 3619.66ZM2622.75 1128.52L2625.43 1134.68C2080.47 1413.73 1401.67 2173.76 1112.36 2829.05C966.064 3160.58 941.924 3418.18 1046.13 3535.7C1138.57 3639.97 1324.27 3628.33 1569 3503.06C2113.88 3224.02 2792.76 2463.99 3082.05 1808.69C3228.36 1477.16 3252.49 1219.56 3148.29 1102.05C3055.82 997.778 2870.37 1009.41 2625.43 1134.68L2622.75 1128.52Z" fill="#F9F9F9"/>
<path d="M1167.45 3637.47C1073.77 3637.47 1000.93 3607.8 953.885 3548.25C843.705 3409.3 884.142 3122.26 1064.9 2761.07C1405.94 2079.53 2144.89 1324.75 2712.1 1078.79C2961.1 970.635 3148.72 974.514 3239.88 1089.74C3350.1 1228.69 3309.67 1515.72 3128.64 1876.92C2787.61 2558.46 2048.73 3313.24 1481.52 3559.21C1361.23 3611.22 1255.13 3637.47 1167.45 3637.47ZM3026.54 1013.76C2940.52 1013.76 2836.09 1039.54 2716.81 1091.34C2151.85 1336.39 1415.87 2088.43 1075.83 2767.46C897.766 3123.4 856.699 3404.73 963.168 3539.12C1050.66 3649.56 1233.27 3652.07 1477.17 3546.2C2042.13 3301.15 2778.12 2549.1 3118.14 1870.07C3296.19 1514.13 3337.28 1232.8 3230.82 1098.4C3186.04 1042.05 3116.47 1013.76 3026.54 1013.76Z" fill="#F9F9F9"/>
<path d="M1114.83 3650.93C1004.44 3650.93 920.87 3614.87 870.527 3543.68C758.897 3385.79 818.531 3074.57 1034.15 2689.88C1427.61 1987.57 2223.3 1247.85 2807.61 1040.9C3054.37 953.514 3237.64 972.226 3323.66 1093.84C3435.33 1251.73 3375.69 1562.95 3160.02 1947.65C2766.52 2649.95 1970.9 3389.67 1386.59 3596.62C1284.27 3632.89 1192.83 3650.93 1114.83 3650.93ZM3079.37 1000.29C3002.62 1000.29 2912.62 1018.09 2811.31 1053.91C2229.25 1260.18 1436.74 1997.16 1044.47 2697.18C831.735 3076.62 771.898 3382.14 880.223 3535.47C962.757 3652.3 1141.24 3669.4 1382.68 3583.84C1964.74 3377.58 2757.25 2640.59 3149.52 1940.57C3362.28 1561.12 3422.07 1255.61 3313.73 1102.29C3265.9 1034.51 3185.6 1000.29 3079.37 1000.29Z" fill="#F9F9F9"/>
<path d="M1065.53 3661.19C935.949 3661.19 841.241 3617.38 787.18 3530.9C675.347 3351.79 756.025 3016.15 1008.79 2609.79C1456.1 1890.6 2307.09 1173.01 2905.67 1010.09C3152.21 943.013 3325.55 976.333 3407.01 1106.62C3518.9 1285.73 3438.17 1621.36 3185.4 2027.73C2738.13 2746.91 1887.14 3464.5 1288.56 3627.42C1205.63 3650.01 1131.14 3661.19 1065.53 3661.19ZM3128.66 990.02C3064.09 990.02 2990.46 1001.2 2908.5 1023.56C2312.45 1185.79 1464.8 1901.09 1018.9 2617.77C769.229 3019.12 688.551 3349.28 797.289 3523.37C875.489 3648.64 1044.48 3680.12 1285.66 3614.41C1881.78 3452.19 2729.43 2736.87 3175.33 2020.2C3424.98 1618.85 3505.63 1288.69 3396.93 1114.6C3345.12 1031.77 3253.95 990.02 3128.66 990.02Z" fill="#F9F9F9"/>
<path d="M1026.73 3666.89C871.566 3666.89 761.386 3613.5 704.433 3509.23C593.63 3306.61 697.629 2946.33 989.797 2520.57C1492.04 1788.83 2396.37 1100.91 3005.53 987.057L3006.55 993.668L3005.53 987.057C3246.92 941.876 3414.25 990.935 3489.54 1128.29C3600.35 1330.9 3496.36 1691.18 3204.24 2116.94C2701.96 2848.68 1797.64 3536.61 1188.5 3650.47C1130.31 3661.41 1076.26 3666.89 1026.73 3666.89ZM3167.28 984.316C3118.58 984.316 3065.1 989.565 3007.34 1000.52C2400.93 1113.92 1500.09 1799.33 999.29 2528.79C714.55 2943.6 608.08 3307.53 714.753 3502.15C787.177 3634.49 950.389 3681.27 1186.44 3637.23C1793.07 3523.83 2693.7 2838.41 3194.53 2108.96C3479.25 1694.15 3585.71 1330.22 3479.04 1135.59C3424.4 1035.43 3317.87 984.316 3167.28 984.316Z" fill="#F9F9F9"/>
<path d="M999.087 3669.4C811.729 3669.4 682.562 3603.91 622.726 3477.28C516.466 3252.08 649.14 2857.57 977.832 2421.77C1535.96 1682.05 2490.86 1031.77 3106.84 972.448C3341.85 949.865 3502.37 1014.66 3571.07 1160C3677.31 1385.21 3544.69 1779.71 3215.98 2215.51C2657.83 2955.23 1702.92 3605.52 1086.98 3664.84C1056.45 3668.03 1027.15 3669.4 999.087 3669.4ZM3107.42 979.299L3108.07 986.143C2495 1045.23 1543.64 1693.23 987.325 2430.68C661.93 2861.92 529.67 3250.94 633.661 3471.12C699.896 3611.22 856.297 3673.74 1085.95 3651.6C1699.01 3592.51 2650.37 2944.51 3206.7 2207.07C3532.08 1775.84 3664.34 1386.8 3560.34 1166.62C3494.11 1026.53 3337.72 964.009 3108.07 986.143L3107.42 979.299Z" fill="#F9F9F9"/>
<path d="M985.038 3670.09C984.835 3670.09 984.835 3670.09 984.835 3670.09C757.243 3670.09 604.35 3588.64 543.071 3434.39C442.167 3180.9 603.111 2761.98 973.9 2313.63C1587.98 1571.17 2590.57 967.211 3208.94 967.211C3209.15 967.211 3209.15 967.211 3209.15 967.211C3436.7 967.211 3589.61 1048.66 3650.92 1202.9C3751.79 1456.4 3590.84 1875.54 3220.1 2323.67C2606 3066.13 1603.41 3670.09 985.038 3670.09ZM3208.72 981.122C2593.47 981.122 1595.01 1583.03 982.77 2323.21C615.496 2767.23 455.168 3180.9 554.21 3429.38C613.431 3578.14 762.402 3656.86 984.835 3656.86H985.038C1600.37 3656.86 2598.83 3054.94 3211.04 2314.77C3578.3 1870.75 3738.6 1457.09 3639.54 1208.61C3580.33 1059.85 3431.34 981.122 3208.94 981.122C3209.15 981.122 3208.94 981.122 3208.72 981.122Z" fill="#F9F9F9"/>
<path d="M985.889 3670.32C950.191 3670.32 915.733 3668.49 882.514 3665.07C662.965 3641.8 518.74 3543.22 465.708 3379.4C373.275 3094.87 564.96 2652.69 978.454 2196.57C1648.87 1456.85 2695.59 907.886 3311.71 972.683C3531.29 995.954 3675.5 1094.52 3728.55 1258.35C3820.94 1542.88 3629.27 1985.06 3215.77 2441.17C2581.46 3140.97 1610.24 3670.09 985.889 3670.32ZM3207.72 980.897C2586.24 980.897 1619.16 1508.42 986.918 2205.93C576.924 2658.16 386.479 3095.11 477.056 3374.61C528.436 3532.96 668.951 3628.79 883.543 3651.38C1496.4 3715.95 2538.55 3168.8 3206.93 2431.59C3616.88 1979.36 3807.32 1542.42 3716.74 1262.91C3665.36 1104.56 3524.84 1008.74 3310.26 986.146C3277.22 982.724 3243.01 980.897 3207.72 980.897Z" fill="#F9F9F9"/>
<path d="M1003.62 3671.23C923.981 3671.23 849.492 3663.93 780.778 3648.64C569.904 3601.87 435.164 3484.81 391.423 3310.04C311.781 2991.97 536.272 2528.33 991.862 2069.72C1718.14 1338.89 2804.36 854.035 3412.8 988.879C3623.68 1035.65 3758.4 1152.71 3802.17 1327.48C3881.81 1645.55 3657.31 2109.19 3201.7 2567.81C2557.54 3216.26 1629.88 3671.23 1003.62 3671.23ZM3189.53 979.984C2566.59 979.984 1642.63 1433.36 1000.33 2079.75C548.236 2534.72 324.984 2993.34 403.387 3306.39C445.897 3475.92 577.332 3589.54 783.466 3635.18C851.557 3650.24 925.626 3657.54 1004.65 3657.54C1627.56 3657.54 2551.59 3204.17 3193.88 2557.77C3646 2102.8 3869.2 1644.19 3790.79 1331.14C3748.33 1161.6 3616.87 1047.98 3410.77 1002.34C3342.65 987.284 3268.37 979.984 3189.53 979.984Z" fill="#F9F9F9"/>
<path d="M1041.79 3675.11C908.294 3675.11 786.345 3657.31 680.911 3620.34C478.908 3549.16 354.69 3412.48 321.674 3224.93C259.569 2871.27 519.142 2388.69 1015.59 1934.18C1796.76 1218.87 2917.19 807.487 3512.87 1017.4C3714.91 1088.59 3839.12 1225.26 3872.09 1412.81C3934.2 1766.47 3674.84 2249.05 3178.22 2703.56C2535.43 3292.47 1662.63 3675.11 1041.79 3675.11ZM3151.4 975.868C2533.61 975.868 1664.51 1357.6 1023.63 1944.45C530.693 2395.99 272.773 2873.55 334.059 3222.19C366.039 3404.5 487.365 3537.75 684.832 3607.34C1277.24 3816.11 2392.23 3405.87 3170.53 2693.06C3663.53 2241.53 3921.45 1763.97 3860.14 1415.32C3828.18 1233.01 3706.87 1099.76 3509.39 1030.18C3404.75 993.441 3283.87 975.868 3151.4 975.868Z" fill="#F9F9F9"/>
<path d="M1102.66 3684.69C903.753 3684.69 726.098 3650.69 583.518 3579.27C390.391 3482.3 277.725 3323.96 257.717 3121.34C219.128 2731.17 515.224 2233.31 1049.84 1789.52C1884.45 1096.58 3033.14 768.698 3610.27 1058.47C3803.4 1155.45 3916.09 1313.79 3936.09 1516.41C3974.64 1906.57 3678.54 2404.43 3143.94 2848.22C2515.65 3369.82 1709.08 3684.69 1102.66 3684.69ZM3090.53 966.294C2487.17 966.294 1683.72 1280.25 1057.27 1800.48C526.16 2241.3 231.918 2734.6 270.095 3119.97C289.697 3317.57 399.877 3472.04 588.677 3566.96C1162.09 3854.9 2305.2 3527.71 3136.7 2837.5C3667.81 2396.68 3962.1 1903.38 3923.91 1518C3904.27 1320.41 3794.12 1165.94 3605.34 1071.02C3463.96 999.831 3288.01 966.294 3090.53 966.294Z" fill="#F9F9F9"/>
<path d="M1187.46 3702.49C910.76 3702.49 668.108 3645.22 489.837 3524.29C305.784 3399.49 206.126 3217.18 201.583 2996.77C192.915 2570.1 526.978 2061.73 1095.44 1636.43C1981.62 973.6 3151.98 738.813 3704.18 1113.01C3888.18 1237.81 3987.89 1420.12 3992.39 1640.53C4001.08 2067.21 3667.01 2575.57 3098.57 3000.87C2498.54 3449.91 1767.92 3702.49 1187.46 3702.49ZM3006.1 948.269C2428.39 948.269 1700.59 1200.17 1102.24 1647.83C537.5 2070.4 205.3 2574.43 213.757 2996.53C218.091 3211.93 315.69 3390.58 496.229 3512.89C1044.67 3884.79 2209.03 3650.01 3091.76 2989.92C3656.5 2567.35 3988.69 2063.33 3980.21 1641.21C3975.86 1425.83 3878.32 1247.17 3697.73 1124.87C3521.13 1005.08 3280.53 948.269 3006.1 948.269Z" fill="#F9F9F9"/>
<path d="M1294.57 3732.15C928.518 3732.15 610.762 3642.02 400.707 3455.15C225.733 3299.54 141.134 3089.86 155.577 2848.46C183.434 2387.55 556.288 1874.17 1152.6 1475.8C2087.73 850.836 3272.29 719.187 3793.11 1182.37C3968.05 1337.98 4052.69 1547.67 4038.2 1789.07C4010.37 2249.97 3637.52 2763.35 3041.19 3161.73C2483.04 3534.78 1836.19 3732.15 1294.57 3732.15ZM2899.44 918.607C2360.28 918.607 1715.68 1115.52 1159.2 1487.43C566.187 1883.76 195.608 2392.8 167.962 2849.36C153.519 3085.98 236.878 3291.78 408.547 3444.43C925.627 3904.42 2103.82 3772.31 3035.03 3150.09C3628.03 2753.76 3998.63 2244.72 4026.24 1788.15C4040.66 1551.55 3957.32 1345.74 3785.65 1193.09C3577.45 1008.05 3262.36 918.607 2899.44 918.607Z" fill="#F9F9F9"/>
<path d="M1419.79 3776.42C955.132 3776.42 552.363 3641.8 317.553 3370.96C152.276 3180.44 85.2143 2939.27 123.593 2673.91C194.373 2182.89 605.395 1672.25 1222.75 1307.87C2203.89 729.001 3394.24 710.519 3876.66 1266.79C4041.96 1457.31 4108.99 1698.49 4070.59 1963.85C3999.86 2454.87 3588.82 2965.51 2971.47 3329.89C2467.96 3626.97 1909.45 3776.42 1419.79 3776.42ZM2774.65 874.343C2287.01 874.343 1730.31 1023.34 1228.32 1319.73C614.265 1682.06 205.721 2189.05 135.565 2675.96C97.8018 2937.21 163.835 3174.28 326.22 3361.61C804.921 3913.77 1988.88 3894.15 2965.45 3318.03C3579.54 2955.7 3988.05 2448.71 4058.19 1961.8C4096.02 1700.54 4029.93 1463.47 3867.6 1276.15C3635.05 1007.82 3235.76 874.343 2774.65 874.343Z" fill="#F9F9F9"/>
<path d="M1554.73 3838.25C985.465 3838.25 490.669 3644.07 241.213 3271.02C86.8716 3040.34 41.065 2763.34 108.743 2470.15C227.59 1955.86 674.933 1455.94 1305.51 1132.85C2328.54 608.75 3516.21 713.48 3952.76 1366.27C4107.12 1596.95 4152.92 1873.95 4085.23 2167.14C3966.38 2681.43 3519.04 3181.34 2888.5 3504.43C2450.07 3729.18 1981.42 3838.25 1554.73 3838.25ZM2639.86 812.506C2214.84 812.506 1747.71 921.345 1310.66 1145.17C683.39 1466.43 238.525 1963.16 120.707 2473.57C53.8555 2762.66 99.0464 3035.55 251.113 3263.03C684.419 3911.03 1865.25 4013.93 2883.35 3492.34C3510.63 3171.08 3955.51 2674.36 4073.27 2163.95C4140.16 1874.86 4094.94 1601.97 3942.9 1374.49C3695.72 1004.85 3204.82 812.506 2639.86 812.506Z" fill="#F9F9F9"/>
<path d="M1689.65 3919.93C1014.35 3919.93 424.221 3647.96 173.113 3155.11C31.7716 2877.66 12.1694 2560.05 116.161 2236.73C286.185 1708.3 766.74 1228.23 1401.81 952.598C2462.45 492.156 3637.51 729.908 4020.87 1482.64C4162.18 1760.09 4181.82 2077.47 4077.83 2401.01C3907.82 2929.45 3427.21 3409.51 2792.11 3685.15C2425.93 3844.18 2045.83 3919.93 1689.65 3919.93ZM2505.13 731.049C2150.26 731.049 1771.61 806.575 1406.38 965.147C774.581 1239.41 296.497 1716.51 127.719 2241.29C24.9598 2560.96 44.3596 2874.69 183.838 3148.49C564.533 3895.52 1732.63 4130.76 2787.83 3672.6C3419.6 3398.34 3897.67 2921.23 4066.45 2396.45C4169.21 2076.78 4149.86 1763.05 4010.36 1489.26C3761.29 1000.74 3175.75 731.049 2505.13 731.049Z" fill="#F9F9F9"/>
<path d="M1814.74 4022.15C1035.19 4022.15 351.388 3650.24 114.513 3022.32C-10.5232 2691.02 1.65147 2328 150.007 1972.97C371.817 1441.57 881.055 990.706 1512.26 767.103C2605.22 379.673 3757.16 760.03 4079.86 1615.21C4204.94 1946.5 4192.77 2309.52 4044.43 2664.55C3822.6 3195.96 3313.37 3646.82 2682.18 3870.42C2391.44 3973.55 2096.78 4022.15 1814.74 4022.15ZM2379.7 628.833C2098.67 628.833 1805.24 677.433 1515.52 780.109C887.657 1002.8 381.31 1450.7 160.733 1978.68C14.0288 2330.29 1.65119 2689.2 125.448 3017.07C360.468 3639.97 1039.52 4008.69 1813.94 4008.69C2094.97 4008.69 2388.32 3960.09 2678.05 3857.42C3305.91 3634.72 3812.31 3186.83 4032.83 2658.85C4179.58 2307.24 4191.75 1948.33 4068.12 1620.45C3833.11 997.782 3154.09 628.833 2379.7 628.833Z" fill="#F9F9F9"/>
<path d="M1922.07 4145.59C1042.42 4145.59 271.954 3648.86 66.4422 2872.41C-37.752 2478.81 13.4173 2066.97 214.182 1680.91C490.052 1150.87 1008.37 748.844 1636.47 577.718C2756.03 272.656 3873.55 805.203 4127.55 1764.88C4231.76 2158.47 4180.6 2570.31 3979.86 2956.37C3704.19 3486.41 3185.61 3888.44 2557.54 4059.57C2343.76 4117.98 2129.83 4145.59 1922.07 4145.59ZM2272.16 505.388C2065.26 505.388 1852.5 532.996 1639.37 590.951C1014.56 761.165 498.93 1160.92 224.915 1687.76C25.7949 2070.39 -24.9616 2478.59 78.4137 2868.53C282.273 3639.05 1047.99 4131.9 1922.07 4131.9C2128.96 4131.9 2341.73 4104.29 2554.86 4046.33C3179.67 3876.12 3695.28 3476.37 3969.28 2949.53C4168.42 2566.89 4219.15 2158.7 4115.81 1768.76C3911.74 998.457 3146.19 505.388 2272.16 505.388Z" fill="#F9F9F9"/>
<path d="M2006.42 4290.02C1031.28 4290.02 186.331 3641.34 30.5472 2705.39C-45.5947 2248.14 54.4832 1771.73 312.193 1364.45C633.667 856.316 1167.05 499.686 1775.32 386.059C2914.74 172.949 3986.03 866.357 4163.5 1932.12C4239.59 2389.38 4139.51 2865.56 3881.82 3273.08C3560.35 3781.21 3026.99 4137.83 2418.69 4251.46C2279.85 4277.47 2141.79 4290.02 2006.42 4290.02ZM2187.59 361.189C2052.88 361.189 1915.62 373.738 1777.43 399.521C1172.2 512.692 641.922 867.262 322.303 1372.43C66.4478 1776.74 -32.797 2249.28 42.7217 2703.11C197.469 3632.21 1037.26 4276.56 2006.42 4276.56C2141.14 4276.56 2278.4 4264.01 2416.59 4238.23C3021.84 4125.05 3552.09 3770.48 3871.75 3265.31C4127.56 2861 4226.84 2388.46 4151.33 1934.64C3996.75 1005.31 3157 361.189 2187.59 361.189Z" fill="#F9F9F9"/>
<path d="M2065.26 4454.3C998.257 4454.3 95.3309 3624.68 8.05075 2520.8C-84.5993 1348.7 777.064 304.376 1929.02 192.801C2486.95 138.725 3029.01 309.168 3455.34 672.411C3881.81 1035.65 4141.39 1548.57 4186.39 2116.72C4231.32 2684.63 4056.17 3239.53 3693.25 3679.44C3330.47 4119.12 2823.27 4390.87 2265.34 4444.72C2198.09 4451.11 2131.28 4454.3 2065.26 4454.3ZM2131.06 196.68C2064.39 196.68 1997.36 199.874 1929.89 206.491C784.703 317.381 -72.012 1355.09 20.2178 2519.66C107.092 3616.47 1004.66 4440.61 2065.26 4440.61C2131.06 4440.61 2197.3 4437.42 2264.11 4431.03C2819 4377.41 3323.23 4107.03 3683.97 3670.08C4044.64 3233.15 4218.57 2681.89 4174 2117.86C4129.43 1553.82 3871.52 1044.32 3447.65 683.135C3075.24 365.981 2613.84 196.68 2131.06 196.68Z" fill="#F9F9F9"/>
<path d="M2097 4637.75C940.69 4637.75 0 3597.53 0 2318.88C0 1040.22 940.69 0 2097 0C3253.3 0 4194 1040.22 4194 2318.88C4194 3597.53 3253.3 4637.75 2097 4637.75ZM2097 13.4619C947.502 13.4619 12.1745 1047.75 12.1745 2318.88C12.1745 3590 947.502 4624.29 2097 4624.29C3246.48 4624.29 4181.83 3590 4181.83 2318.88C4181.83 1047.52 3246.48 13.4619 2097 13.4619Z" fill="#F9F9F9"/>
</svg>
